<?xml version="1.0" encoding="utf-8" standalone="no"?>
<!DOCTYPE svg PUBLIC "-//W3C//DTD SVG 1.1//EN"
  "http://www.w3.org/Graphics/SVG/1.1/DTD/svg11.dtd">
<svg xmlns:xlink="http://www.w3.org/1999/xlink" width="856.758125pt" height="424.716875pt" viewBox="0 0 856.758125 424.716875" xmlns="http://www.w3.org/2000/svg" version="1.1">
 <metadata>
  <rdf:RDF xmlns:dc="http://purl.org/dc/elements/1.1/" xmlns:cc="http://creativecommons.org/ns#" xmlns:rdf="http://www.w3.org/1999/02/22-rdf-syntax-ns#">
   <cc:Work>
    <dc:type rdf:resource="http://purl.org/dc/dcmitype/StillImage"/>
    <dc:date>2026-07-14T09:40:28.691710</dc:date>
    <dc:format>image/svg+xml</dc:format>
    <dc:creator>
     <cc:Agent>
      <dc:title>Matplotlib v3.11.0, https://matplotlib.org/</dc:title>
     </cc:Agent>
    </dc:creator>
   </cc:Work>
  </rdf:RDF>
 </metadata>
 <defs>
  <style type="text/css">*{stroke-linejoin: round; stroke-linecap: butt}</style>
 </defs>
 <g id="figure_1">
  <g id="patch_1">
   <path d="M 0 424.716875 
L 856.758125 424.716875 
L 856.758125 0 
L 0 0 
z
" style="fill: #ffffff"/>
  </g>
  <g id="axes_1">
   <g id="patch_2">
    <path d="M 64.800938 384.515938 
L 849.558125 384.515938 
L 849.558125 23.837813 
L 64.800938 23.837813 
z
" style="fill: #ffffff"/>
   </g>
   <g id="matplotlib.axis_1">
    <g id="xtick_1">
     <g id="line2d_1">
      <path d="M 99.658246 384.515938 
L 99.658246 23.837813 
" clip-path="url(#p02fccd8e2c)" style="fill: none; stroke-dasharray: 2.96,1.28; stroke-dashoffset: 0; stroke: #cccccc; stroke-opacity: 0.25; stroke-width: 0.8"/>
     </g>
     <g id="line2d_2">
      <defs>
       <path id="m50ff20056e" d="M 0 0 
L 0 3.5 
" style="stroke: #000000; stroke-width: 0.8"/>
      </defs>
      <g>
       <use xlink:href="#m50ff20056e" x="99.658246" y="384.515938" style="stroke: #000000; stroke-width: 0.8"/>
      </g>
     </g>
     <g id="text_1">
      <!-- 0 -->
      <g transform="translate(96.476996 399.113594) scale(0.1 -0.1)">
       <defs>
        <path id="DejaVuSerif-13" d="M 2034 219 
Q 2513 219 2750 744 
Q 2988 1269 2988 2328 
Q 2988 3391 2750 3916 
Q 2513 4441 2034 4441 
Q 1556 4441 1318 3916 
Q 1081 3391 1081 2328 
Q 1081 1269 1318 744 
Q 1556 219 2034 219 
z
M 2034 -91 
Q 1275 -91 848 546 
Q 422 1184 422 2328 
Q 422 3475 848 4112 
Q 1275 4750 2034 4750 
Q 2797 4750 3222 4112 
Q 3647 3475 3647 2328 
Q 3647 1184 3222 546 
Q 2797 -91 2034 -91 
z
" transform="scale(0.015625)"/>
       </defs>
       <use xlink:href="#DejaVuSerif-13"/>
      </g>
     </g>
    </g>
    <g id="xtick_2">
     <g id="line2d_3">
      <path d="M 201.342343 384.515938 
L 201.342343 23.837813 
" clip-path="url(#p02fccd8e2c)" style="fill: none; stroke-dasharray: 2.96,1.28; stroke-dashoffset: 0; stroke: #cccccc; stroke-opacity: 0.25; stroke-width: 0.8"/>
     </g>
     <g id="line2d_4">
      <g>
       <use xlink:href="#m50ff20056e" x="201.342343" y="384.515938" style="stroke: #000000; stroke-width: 0.8"/>
      </g>
     </g>
     <g id="text_2">
      <!-- 500 -->
      <g transform="translate(191.798593 399.113594) scale(0.1 -0.1)">
       <defs>
        <path id="DejaVuSerif-18" d="M 3219 4666 
L 3219 4153 
L 1081 4153 
L 1081 2816 
Q 1244 2928 1461 2984 
Q 1678 3041 1947 3041 
Q 2703 3041 3140 2622 
Q 3578 2203 3578 1478 
Q 3578 738 3136 323 
Q 2694 -91 1894 -91 
Q 1572 -91 1234 -12 
Q 897 66 544 225 
L 544 1131 
L 897 1131 
Q 925 688 1179 453 
Q 1434 219 1894 219 
Q 2388 219 2653 544 
Q 2919 869 2919 1478 
Q 2919 2084 2655 2407 
Q 2391 2731 1894 2731 
Q 1613 2731 1398 2631 
Q 1184 2531 1019 2322 
L 750 2322 
L 750 4666 
L 3219 4666 
z
" transform="scale(0.015625)"/>
       </defs>
       <use xlink:href="#DejaVuSerif-18"/>
       <use xlink:href="#DejaVuSerif-13" transform="translate(63.625 0)"/>
       <use xlink:href="#DejaVuSerif-13" transform="translate(127.25 0)"/>
      </g>
     </g>
    </g>
    <g id="xtick_3">
     <g id="line2d_5">
      <path d="M 303.02644 384.515938 
L 303.02644 23.837813 
" clip-path="url(#p02fccd8e2c)" style="fill: none; stroke-dasharray: 2.96,1.28; stroke-dashoffset: 0; stroke: #cccccc; stroke-opacity: 0.25; stroke-width: 0.8"/>
     </g>
     <g id="line2d_6">
      <g>
       <use xlink:href="#m50ff20056e" x="303.02644" y="384.515938" style="stroke: #000000; stroke-width: 0.8"/>
      </g>
     </g>
     <g id="text_3">
      <!-- 1000 -->
      <g transform="translate(290.30144 399.113594) scale(0.1 -0.1)">
       <defs>
        <path id="DejaVuSerif-14" d="M 909 0 
L 909 331 
L 1722 331 
L 1722 4213 
L 781 3603 
L 781 4013 
L 1919 4750 
L 2350 4750 
L 2350 331 
L 3163 331 
L 3163 0 
L 909 0 
z
" transform="scale(0.015625)"/>
       </defs>
       <use xlink:href="#DejaVuSerif-14"/>
       <use xlink:href="#DejaVuSerif-13" transform="translate(63.625 0)"/>
       <use xlink:href="#DejaVuSerif-13" transform="translate(127.25 0)"/>
       <use xlink:href="#DejaVuSerif-13" transform="translate(190.875 0)"/>
      </g>
     </g>
    </g>
    <g id="xtick_4">
     <g id="line2d_7">
      <path d="M 404.710537 384.515938 
L 404.710537 23.837813 
" clip-path="url(#p02fccd8e2c)" style="fill: none; stroke-dasharray: 2.96,1.28; stroke-dashoffset: 0; stroke: #cccccc; stroke-opacity: 0.25; stroke-width: 0.8"/>
     </g>
     <g id="line2d_8">
      <g>
       <use xlink:href="#m50ff20056e" x="404.710537" y="384.515938" style="stroke: #000000; stroke-width: 0.8"/>
      </g>
     </g>
     <g id="text_4">
      <!-- 1500 -->
      <g transform="translate(391.985537 399.113594) scale(0.1 -0.1)">
       <use xlink:href="#DejaVuSerif-14"/>
       <use xlink:href="#DejaVuSerif-18" transform="translate(63.625 0)"/>
       <use xlink:href="#DejaVuSerif-13" transform="translate(127.25 0)"/>
       <use xlink:href="#DejaVuSerif-13" transform="translate(190.875 0)"/>
      </g>
     </g>
    </g>
    <g id="xtick_5">
     <g id="line2d_9">
      <path d="M 506.394634 384.515938 
L 506.394634 23.837813 
" clip-path="url(#p02fccd8e2c)" style="fill: none; stroke-dasharray: 2.96,1.28; stroke-dashoffset: 0; stroke: #cccccc; stroke-opacity: 0.25; stroke-width: 0.8"/>
     </g>
     <g id="line2d_10">
      <g>
       <use xlink:href="#m50ff20056e" x="506.394634" y="384.515938" style="stroke: #000000; stroke-width: 0.8"/>
      </g>
     </g>
     <g id="text_5">
      <!-- 2000 -->
      <g transform="translate(493.669634 399.113594) scale(0.1 -0.1)">
       <defs>
        <path id="DejaVuSerif-15" d="M 819 3553 
L 469 3553 
L 469 4384 
Q 803 4563 1142 4656 
Q 1481 4750 1806 4750 
Q 2534 4750 2956 4397 
Q 3378 4044 3378 3438 
Q 3378 2753 2422 1800 
Q 2347 1728 2309 1691 
L 1131 513 
L 3078 513 
L 3078 1088 
L 3444 1088 
L 3444 0 
L 434 0 
L 434 341 
L 1850 1753 
Q 2319 2222 2519 2614 
Q 2719 3006 2719 3438 
Q 2719 3909 2473 4175 
Q 2228 4441 1797 4441 
Q 1350 4441 1106 4219 
Q 863 3997 819 3553 
z
" transform="scale(0.015625)"/>
       </defs>
       <use xlink:href="#DejaVuSerif-15"/>
       <use xlink:href="#DejaVuSerif-13" transform="translate(63.625 0)"/>
       <use xlink:href="#DejaVuSerif-13" transform="translate(127.25 0)"/>
       <use xlink:href="#DejaVuSerif-13" transform="translate(190.875 0)"/>
      </g>
     </g>
    </g>
    <g id="xtick_6">
     <g id="line2d_11">
      <path d="M 608.078731 384.515938 
L 608.078731 23.837813 
" clip-path="url(#p02fccd8e2c)" style="fill: none; stroke-dasharray: 2.96,1.28; stroke-dashoffset: 0; stroke: #cccccc; stroke-opacity: 0.25; stroke-width: 0.8"/>
     </g>
     <g id="line2d_12">
      <g>
       <use xlink:href="#m50ff20056e" x="608.078731" y="384.515938" style="stroke: #000000; stroke-width: 0.8"/>
      </g>
     </g>
     <g id="text_6">
      <!-- 2500 -->
      <g transform="translate(595.353731 399.113594) scale(0.1 -0.1)">
       <use xlink:href="#DejaVuSerif-15"/>
       <use xlink:href="#DejaVuSerif-18" transform="translate(63.625 0)"/>
       <use xlink:href="#DejaVuSerif-13" transform="translate(127.25 0)"/>
       <use xlink:href="#DejaVuSerif-13" transform="translate(190.875 0)"/>
      </g>
     </g>
    </g>
    <g id="xtick_7">
     <g id="line2d_13">
      <path d="M 709.762828 384.515938 
L 709.762828 23.837813 
" clip-path="url(#p02fccd8e2c)" style="fill: none; stroke-dasharray: 2.96,1.28; stroke-dashoffset: 0; stroke: #cccccc; stroke-opacity: 0.25; stroke-width: 0.8"/>
     </g>
     <g id="line2d_14">
      <g>
       <use xlink:href="#m50ff20056e" x="709.762828" y="384.515938" style="stroke: #000000; stroke-width: 0.8"/>
      </g>
     </g>
     <g id="text_7">
      <!-- 3000 -->
      <g transform="translate(697.037828 399.113594) scale(0.1 -0.1)">
       <defs>
        <path id="DejaVuSerif-16" d="M 622 4469 
Q 988 4606 1323 4678 
Q 1659 4750 1953 4750 
Q 2638 4750 3022 4454 
Q 3406 4159 3406 3634 
Q 3406 3213 3140 2930 
Q 2875 2647 2388 2547 
Q 2963 2466 3280 2130 
Q 3597 1794 3597 1259 
Q 3597 606 3158 257 
Q 2719 -91 1894 -91 
Q 1528 -91 1179 -12 
Q 831 66 488 225 
L 488 1131 
L 838 1131 
Q 869 681 1141 450 
Q 1413 219 1906 219 
Q 2384 219 2661 495 
Q 2938 772 2938 1253 
Q 2938 1803 2653 2086 
Q 2369 2369 1819 2369 
L 1522 2369 
L 1522 2688 
L 1678 2688 
Q 2225 2688 2498 2914 
Q 2772 3141 2772 3597 
Q 2772 4006 2547 4223 
Q 2322 4441 1900 4441 
Q 1478 4441 1245 4241 
Q 1013 4041 972 3647 
L 622 3647 
L 622 4469 
z
" transform="scale(0.015625)"/>
       </defs>
       <use xlink:href="#DejaVuSerif-16"/>
       <use xlink:href="#DejaVuSerif-13" transform="translate(63.625 0)"/>
       <use xlink:href="#DejaVuSerif-13" transform="translate(127.25 0)"/>
       <use xlink:href="#DejaVuSerif-13" transform="translate(190.875 0)"/>
      </g>
     </g>
    </g>
    <g id="xtick_8">
     <g id="line2d_15">
      <path d="M 811.446925 384.515938 
L 811.446925 23.837813 
" clip-path="url(#p02fccd8e2c)" style="fill: none; stroke-dasharray: 2.96,1.28; stroke-dashoffset: 0; stroke: #cccccc; stroke-opacity: 0.25; stroke-width: 0.8"/>
     </g>
     <g id="line2d_16">
      <g>
       <use xlink:href="#m50ff20056e" x="811.446925" y="384.515938" style="stroke: #000000; stroke-width: 0.8"/>
      </g>
     </g>
     <g id="text_8">
      <!-- 3500 -->
      <g transform="translate(798.721925 399.113594) scale(0.1 -0.1)">
       <use xlink:href="#DejaVuSerif-16"/>
       <use xlink:href="#DejaVuSerif-18" transform="translate(63.625 0)"/>
       <use xlink:href="#DejaVuSerif-13" transform="translate(127.25 0)"/>
       <use xlink:href="#DejaVuSerif-13" transform="translate(190.875 0)"/>
      </g>
     </g>
    </g>
    <g id="text_9">
     <!-- Circuit Size (Number of Gates) -->
     <g transform="translate(362.886719 414.634063) scale(0.12 -0.12)">
      <defs>
       <path id="DejaVuSerif-26" d="M 4513 1234 
Q 4306 581 3820 245 
Q 3334 -91 2591 -91 
Q 2134 -91 1743 65 
Q 1353 222 1050 525 
Q 700 875 529 1320 
Q 359 1766 359 2328 
Q 359 3416 987 4083 
Q 1616 4750 2644 4750 
Q 3025 4750 3456 4650 
Q 3888 4550 4384 4347 
L 4384 3272 
L 4031 3272 
Q 3916 3859 3567 4137 
Q 3219 4416 2591 4416 
Q 1844 4416 1459 3886 
Q 1075 3356 1075 2328 
Q 1075 1303 1459 773 
Q 1844 244 2591 244 
Q 3113 244 3450 492 
Q 3788 741 3938 1234 
L 4513 1234 
z
" transform="scale(0.015625)"/>
       <path id="DejaVuSerif-4c" d="M 622 4353 
Q 622 4497 726 4603 
Q 831 4709 978 4709 
Q 1122 4709 1226 4603 
Q 1331 4497 1331 4353 
Q 1331 4206 1228 4103 
Q 1125 4000 978 4000 
Q 831 4000 726 4103 
Q 622 4206 622 4353 
z
M 1356 331 
L 1900 331 
L 1900 0 
L 231 0 
L 231 331 
L 781 331 
L 781 2988 
L 231 2988 
L 231 3322 
L 1356 3322 
L 1356 331 
z
" transform="scale(0.015625)"/>
       <path id="DejaVuSerif-55" d="M 3059 3328 
L 3059 2497 
L 2728 2497 
Q 2713 2744 2591 2866 
Q 2469 2988 2234 2988 
Q 1809 2988 1582 2694 
Q 1356 2400 1356 1850 
L 1356 331 
L 2022 331 
L 2022 0 
L 263 0 
L 263 331 
L 781 331 
L 781 2994 
L 231 2994 
L 231 3322 
L 1356 3322 
L 1356 2731 
Q 1525 3078 1790 3245 
Q 2056 3413 2438 3413 
Q 2578 3413 2733 3391 
Q 2888 3369 3059 3328 
z
" transform="scale(0.015625)"/>
       <path id="DejaVuSerif-46" d="M 3291 997 
Q 3169 466 2822 187 
Q 2475 -91 1925 -91 
Q 1200 -91 759 389 
Q 319 869 319 1663 
Q 319 2459 759 2936 
Q 1200 3413 1925 3413 
Q 2241 3413 2553 3339 
Q 2866 3266 3181 3116 
L 3181 2266 
L 2847 2266 
Q 2781 2703 2561 2903 
Q 2341 3103 1931 3103 
Q 1466 3103 1228 2742 
Q 991 2381 991 1663 
Q 991 944 1227 581 
Q 1463 219 1931 219 
Q 2303 219 2525 412 
Q 2747 606 2828 997 
L 3291 997 
z
" transform="scale(0.015625)"/>
       <path id="DejaVuSerif-58" d="M 2266 3322 
L 3341 3322 
L 3341 331 
L 3884 331 
L 3884 0 
L 2766 0 
L 2766 588 
Q 2606 256 2353 82 
Q 2100 -91 1766 -91 
Q 1213 -91 952 223 
Q 691 538 691 1209 
L 691 2988 
L 172 2988 
L 172 3322 
L 1269 3322 
L 1269 1388 
Q 1269 781 1417 556 
Q 1566 331 1947 331 
Q 2347 331 2556 625 
Q 2766 919 2766 1478 
L 2766 2988 
L 2266 2988 
L 2266 3322 
z
" transform="scale(0.015625)"/>
       <path id="DejaVuSerif-57" d="M 691 2988 
L 184 2988 
L 184 3322 
L 691 3322 
L 691 4353 
L 1269 4353 
L 1269 3322 
L 2350 3322 
L 2350 2988 
L 1269 2988 
L 1269 878 
Q 1269 456 1350 337 
Q 1431 219 1650 219 
Q 1875 219 1978 351 
Q 2081 484 2088 781 
L 2522 781 
Q 2497 328 2275 118 
Q 2053 -91 1600 -91 
Q 1103 -91 897 129 
Q 691 350 691 878 
L 691 2988 
z
" transform="scale(0.015625)"/>
       <path id="DejaVuSerif-3" transform="scale(0.015625)"/>
       <path id="DejaVuSerif-36" d="M 594 225 
L 594 1288 
L 953 1284 
Q 969 753 1261 498 
Q 1553 244 2150 244 
Q 2706 244 2998 464 
Q 3291 684 3291 1106 
Q 3291 1444 3114 1625 
Q 2938 1806 2369 1978 
L 1753 2163 
Q 1084 2366 811 2669 
Q 538 2972 538 3500 
Q 538 4094 959 4422 
Q 1381 4750 2144 4750 
Q 2469 4750 2856 4679 
Q 3244 4609 3681 4475 
L 3681 3481 
L 3328 3481 
Q 3275 3975 2998 4195 
Q 2722 4416 2156 4416 
Q 1663 4416 1405 4214 
Q 1147 4013 1147 3628 
Q 1147 3294 1340 3103 
Q 1534 2913 2163 2725 
L 2741 2553 
Q 3375 2363 3645 2067 
Q 3916 1772 3916 1275 
Q 3916 597 3481 253 
Q 3047 -91 2188 -91 
Q 1803 -91 1404 -12 
Q 1006 66 594 225 
z
" transform="scale(0.015625)"/>
       <path id="DejaVuSerif-5d" d="M 256 0 
L 256 269 
L 2338 2988 
L 691 2988 
L 691 2413 
L 359 2413 
L 359 3322 
L 3078 3322 
L 3078 3053 
L 997 331 
L 2803 331 
L 2803 934 
L 3138 934 
L 3138 0 
L 256 0 
z
" transform="scale(0.015625)"/>
       <path id="DejaVuSerif-48" d="M 3469 1600 
L 991 1600 
L 991 1575 
Q 991 903 1244 561 
Q 1497 219 1991 219 
Q 2369 219 2611 417 
Q 2853 616 2950 1006 
L 3413 1006 
Q 3275 459 2904 184 
Q 2534 -91 1931 -91 
Q 1203 -91 761 389 
Q 319 869 319 1663 
Q 319 2450 753 2931 
Q 1188 3413 1894 3413 
Q 2647 3413 3050 2948 
Q 3453 2484 3469 1600 
z
M 2791 1931 
Q 2772 2513 2545 2808 
Q 2319 3103 1894 3103 
Q 1497 3103 1269 2806 
Q 1041 2509 991 1931 
L 2791 1931 
z
" transform="scale(0.015625)"/>
       <path id="DejaVuSerif-b" d="M 2041 -997 
Q 1281 -656 893 83 
Q 506 822 506 1931 
Q 506 3044 893 3783 
Q 1281 4522 2041 4863 
L 2041 4556 
Q 1559 4225 1350 3623 
Q 1141 3022 1141 1931 
Q 1141 844 1350 242 
Q 1559 -359 2041 -691 
L 2041 -997 
z
" transform="scale(0.015625)"/>
       <path id="DejaVuSerif-31" d="M 313 0 
L 313 331 
L 941 331 
L 941 4331 
L 313 4331 
L 313 4666 
L 1509 4666 
L 4306 984 
L 4306 4331 
L 3681 4331 
L 3681 4666 
L 5319 4666 
L 5319 4331 
L 4691 4331 
L 4691 -91 
L 4313 -91 
L 1325 3841 
L 1325 331 
L 1953 331 
L 1953 0 
L 313 0 
z
" transform="scale(0.015625)"/>
       <path id="DejaVuSerif-50" d="M 3316 2675 
Q 3481 3041 3739 3227 
Q 3997 3413 4341 3413 
Q 4863 3413 5119 3089 
Q 5375 2766 5375 2113 
L 5375 331 
L 5894 331 
L 5894 0 
L 4300 0 
L 4300 331 
L 4800 331 
L 4800 2047 
Q 4800 2556 4650 2772 
Q 4500 2988 4153 2988 
Q 3769 2988 3567 2697 
Q 3366 2406 3366 1850 
L 3366 331 
L 3866 331 
L 3866 0 
L 2291 0 
L 2291 331 
L 2791 331 
L 2791 2069 
Q 2791 2566 2641 2777 
Q 2491 2988 2144 2988 
Q 1759 2988 1557 2697 
Q 1356 2406 1356 1850 
L 1356 331 
L 1856 331 
L 1856 0 
L 263 0 
L 263 331 
L 781 331 
L 781 2994 
L 231 2994 
L 231 3322 
L 1356 3322 
L 1356 2731 
Q 1516 3063 1762 3238 
Q 2009 3413 2322 3413 
Q 2709 3413 2968 3220 
Q 3228 3028 3316 2675 
z
" transform="scale(0.015625)"/>
       <path id="DejaVuSerif-45" d="M 738 331 
L 738 4531 
L 184 4531 
L 184 4863 
L 1313 4863 
L 1313 2803 
Q 1481 3116 1742 3264 
Q 2003 3413 2388 3413 
Q 3000 3413 3387 2928 
Q 3775 2444 3775 1663 
Q 3775 881 3387 395 
Q 3000 -91 2388 -91 
Q 2003 -91 1742 57 
Q 1481 206 1313 519 
L 1313 0 
L 184 0 
L 184 331 
L 738 331 
z
M 1313 1497 
Q 1313 897 1542 583 
Q 1772 269 2209 269 
Q 2650 269 2876 622 
Q 3103 975 3103 1663 
Q 3103 2353 2876 2703 
Q 2650 3053 2209 3053 
Q 1772 3053 1542 2737 
Q 1313 2422 1313 1825 
L 1313 1497 
z
" transform="scale(0.015625)"/>
       <path id="DejaVuSerif-52" d="M 1925 219 
Q 2388 219 2623 584 
Q 2859 950 2859 1663 
Q 2859 2375 2623 2739 
Q 2388 3103 1925 3103 
Q 1463 3103 1227 2739 
Q 991 2375 991 1663 
Q 991 950 1228 584 
Q 1466 219 1925 219 
z
M 1925 -91 
Q 1200 -91 759 389 
Q 319 869 319 1663 
Q 319 2456 758 2934 
Q 1197 3413 1925 3413 
Q 2653 3413 3092 2934 
Q 3531 2456 3531 1663 
Q 3531 869 3092 389 
Q 2653 -91 1925 -91 
z
" transform="scale(0.015625)"/>
       <path id="DejaVuSerif-49" d="M 2753 4078 
L 2450 4078 
Q 2447 4313 2317 4434 
Q 2188 4556 1941 4556 
Q 1619 4556 1487 4379 
Q 1356 4203 1356 3750 
L 1356 3322 
L 2284 3322 
L 2284 2988 
L 1356 2988 
L 1356 331 
L 2094 331 
L 2094 0 
L 231 0 
L 231 331 
L 781 331 
L 781 2988 
L 231 2988 
L 231 3322 
L 781 3322 
L 781 3738 
Q 781 4294 1070 4578 
Q 1359 4863 1919 4863 
Q 2128 4863 2337 4825 
Q 2547 4788 2753 4709 
L 2753 4078 
z
" transform="scale(0.015625)"/>
       <path id="DejaVuSerif-2a" d="M 4097 3272 
Q 3988 3856 3641 4136 
Q 3294 4416 2675 4416 
Q 1869 4416 1472 3897 
Q 1075 3378 1075 2328 
Q 1075 1300 1484 772 
Q 1894 244 2688 244 
Q 3041 244 3362 331 
Q 3684 419 3975 594 
L 3975 1797 
L 3097 1797 
L 3097 2131 
L 4609 2131 
L 4609 391 
Q 4194 150 3714 29 
Q 3234 -91 2688 -91 
Q 1631 -91 995 570 
Q 359 1231 359 2328 
Q 359 3434 996 4092 
Q 1634 4750 2713 4750 
Q 3113 4750 3539 4658 
Q 3966 4566 4447 4378 
L 4447 3272 
L 4097 3272 
z
" transform="scale(0.015625)"/>
       <path id="DejaVuSerif-44" d="M 2547 1044 
L 2547 1747 
L 1806 1747 
Q 1378 1747 1168 1562 
Q 959 1378 959 997 
Q 959 650 1171 447 
Q 1384 244 1747 244 
Q 2106 244 2326 466 
Q 2547 688 2547 1044 
z
M 3122 2075 
L 3122 331 
L 3634 331 
L 3634 0 
L 2547 0 
L 2547 359 
Q 2356 128 2106 18 
Q 1856 -91 1522 -91 
Q 969 -91 644 203 
Q 319 497 319 997 
Q 319 1513 691 1797 
Q 1063 2081 1741 2081 
L 2547 2081 
L 2547 2309 
Q 2547 2688 2317 2895 
Q 2088 3103 1672 3103 
Q 1328 3103 1125 2947 
Q 922 2791 872 2484 
L 575 2484 
L 575 3156 
Q 875 3284 1158 3348 
Q 1441 3413 1709 3413 
Q 2400 3413 2761 3070 
Q 3122 2728 3122 2075 
z
" transform="scale(0.015625)"/>
       <path id="DejaVuSerif-56" d="M 359 184 
L 359 959 
L 691 959 
Q 703 588 923 403 
Q 1144 219 1575 219 
Q 1963 219 2166 364 
Q 2369 509 2369 788 
Q 2369 1006 2220 1140 
Q 2072 1275 1594 1428 
L 1178 1569 
Q 750 1706 558 1912 
Q 366 2119 366 2438 
Q 366 2894 700 3153 
Q 1034 3413 1625 3413 
Q 1888 3413 2178 3344 
Q 2469 3275 2778 3144 
L 2778 2419 
L 2447 2419 
Q 2434 2741 2221 2922 
Q 2009 3103 1644 3103 
Q 1281 3103 1095 2975 
Q 909 2847 909 2591 
Q 909 2381 1050 2254 
Q 1191 2128 1613 1997 
L 2069 1856 
Q 2541 1709 2748 1489 
Q 2956 1269 2956 922 
Q 2956 450 2595 179 
Q 2234 -91 1600 -91 
Q 1278 -91 972 -22 
Q 666 47 359 184 
z
" transform="scale(0.015625)"/>
       <path id="DejaVuSerif-c" d="M 453 -997 
L 453 -691 
Q 934 -359 1145 242 
Q 1356 844 1356 1931 
Q 1356 3022 1145 3623 
Q 934 4225 453 4556 
L 453 4863 
Q 1216 4522 1603 3783 
Q 1991 3044 1991 1931 
Q 1991 822 1603 83 
Q 1216 -656 453 -997 
z
" transform="scale(0.015625)"/>
      </defs>
      <use xlink:href="#DejaVuSerif-26"/>
      <use xlink:href="#DejaVuSerif-4c" transform="translate(76.515625 0)"/>
      <use xlink:href="#DejaVuSerif-55" transform="translate(108.5 0)"/>
      <use xlink:href="#DejaVuSerif-46" transform="translate(156.296875 0)"/>
      <use xlink:href="#DejaVuSerif-58" transform="translate(212.296875 0)"/>
      <use xlink:href="#DejaVuSerif-4c" transform="translate(276.703125 0)"/>
      <use xlink:href="#DejaVuSerif-57" transform="translate(308.6875 0)"/>
      <use xlink:href="#DejaVuSerif-3" transform="translate(348.875 0)"/>
      <use xlink:href="#DejaVuSerif-36" transform="translate(380.65625 0)"/>
      <use xlink:href="#DejaVuSerif-4c" transform="translate(449.15625 0)"/>
      <use xlink:href="#DejaVuSerif-5d" transform="translate(481.140625 0)"/>
      <use xlink:href="#DejaVuSerif-48" transform="translate(533.828125 0)"/>
      <use xlink:href="#DejaVuSerif-3" transform="translate(593.015625 0)"/>
      <use xlink:href="#DejaVuSerif-b" transform="translate(624.796875 0)"/>
      <use xlink:href="#DejaVuSerif-31" transform="translate(663.8125 0)"/>
      <use xlink:href="#DejaVuSerif-58" transform="translate(751.3125 0)"/>
      <use xlink:href="#DejaVuSerif-50" transform="translate(815.71875 0)"/>
      <use xlink:href="#DejaVuSerif-45" transform="translate(910.546875 0)"/>
      <use xlink:href="#DejaVuSerif-48" transform="translate(974.5625 0)"/>
      <use xlink:href="#DejaVuSerif-55" transform="translate(1033.75 0)"/>
      <use xlink:href="#DejaVuSerif-3" transform="translate(1081.546875 0)"/>
      <use xlink:href="#DejaVuSerif-52" transform="translate(1113.328125 0)"/>
      <use xlink:href="#DejaVuSerif-49" transform="translate(1173.53125 0)"/>
      <use xlink:href="#DejaVuSerif-3" transform="translate(1210.546875 0)"/>
      <use xlink:href="#DejaVuSerif-2a" transform="translate(1242.328125 0)"/>
      <use xlink:href="#DejaVuSerif-44" transform="translate(1322.21875 0)"/>
      <use xlink:href="#DejaVuSerif-57" transform="translate(1381.84375 0)"/>
      <use xlink:href="#DejaVuSerif-48" transform="translate(1422.03125 0)"/>
      <use xlink:href="#DejaVuSerif-56" transform="translate(1481.21875 0)"/>
      <use xlink:href="#DejaVuSerif-c" transform="translate(1532.53125 0)"/>
     </g>
    </g>
   </g>
   <g id="matplotlib.axis_2">
    <g id="ytick_1">
     <g id="line2d_17">
      <path d="M 64.800938 320.894075 
L 849.558125 320.894075 
" clip-path="url(#p02fccd8e2c)" style="fill: none; stroke-dasharray: 2.96,1.28; stroke-dashoffset: 0; stroke: #cccccc; stroke-opacity: 0.25; stroke-width: 0.8"/>
     </g>
     <g id="line2d_18">
      <defs>
       <path id="md8edb4cfdd" d="M 0 0 
L -3.5 0 
" style="stroke: #000000; stroke-width: 0.8"/>
      </defs>
      <g>
       <use xlink:href="#md8edb4cfdd" x="64.800938" y="320.894075" style="stroke: #000000; stroke-width: 0.8"/>
      </g>
     </g>
     <g id="text_10">
      <!-- $\mathdefault{10^{1}}$ -->
      <g transform="translate(40.200938 325.594075) scale(0.1 -0.1)">
       <use xlink:href="#DejaVuSerif-14" transform="translate(0 0.746875)"/>
       <use xlink:href="#DejaVuSerif-13" transform="translate(63.623047 0.746875)"/>
       <use xlink:href="#DejaVuSerif-14" transform="translate(128.203125 42.046875) scale(0.7)"/>
      </g>
     </g>
    </g>
    <g id="ytick_2">
     <g id="line2d_19">
      <defs>
       <path id="md84737973d" d="M 0 0 
L -2 0 
" style="stroke: #000000; stroke-width: 0.6"/>
      </defs>
      <g>
       <use xlink:href="#md84737973d" x="64.800938" y="365.854394" style="stroke: #000000; stroke-width: 0.6"/>
      </g>
     </g>
    </g>
    <g id="ytick_3">
     <g id="line2d_20">
      <g>
       <use xlink:href="#md84737973d" x="64.800938" y="342.122752" style="stroke: #000000; stroke-width: 0.6"/>
      </g>
     </g>
    </g>
    <g id="ytick_4">
     <g id="line2d_21">
      <g>
       <use xlink:href="#md84737973d" x="64.800938" y="181.234569" style="stroke: #000000; stroke-width: 0.6"/>
      </g>
     </g>
     <g id="text_11">
      <!-- $\mathdefault{2\times10^{1}}$ -->
      <g transform="translate(23.200938 185.934569) scale(0.1 -0.1)">
       <defs>
        <path id="DejaVuSerif-99" d="M 4481 3450 
L 3034 2003 
L 4481 563 
L 4122 213 
L 2681 1650 
L 1241 213 
L 884 563 
L 2322 2003 
L 884 3450 
L 1241 3803 
L 2681 2363 
L 4122 3803 
L 4481 3450 
z
" transform="scale(0.015625)"/>
       </defs>
       <use xlink:href="#DejaVuSerif-15" transform="translate(0 0.746875)"/>
       <use xlink:href="#DejaVuSerif-99" transform="translate(83.105469 0.746875)"/>
       <use xlink:href="#DejaVuSerif-14" transform="translate(186.376953 0.746875)"/>
       <use xlink:href="#DejaVuSerif-13" transform="translate(250 0.746875)"/>
       <use xlink:href="#DejaVuSerif-14" transform="translate(314.580078 42.046875) scale(0.7)"/>
      </g>
     </g>
    </g>
    <g id="ytick_5">
     <g id="line2d_22">
      <g>
       <use xlink:href="#md84737973d" x="64.800938" y="99.538995" style="stroke: #000000; stroke-width: 0.6"/>
      </g>
     </g>
     <g id="text_12">
      <!-- $\mathdefault{3\times10^{1}}$ -->
      <g transform="translate(23.200938 104.238995) scale(0.1 -0.1)">
       <use xlink:href="#DejaVuSerif-16" transform="translate(0 0.746875)"/>
       <use xlink:href="#DejaVuSerif-99" transform="translate(83.105469 0.746875)"/>
       <use xlink:href="#DejaVuSerif-14" transform="translate(186.376953 0.746875)"/>
       <use xlink:href="#DejaVuSerif-13" transform="translate(250 0.746875)"/>
       <use xlink:href="#DejaVuSerif-14" transform="translate(314.580078 42.046875) scale(0.7)"/>
      </g>
     </g>
    </g>
    <g id="ytick_6">
     <g id="line2d_23">
      <g>
       <use xlink:href="#md84737973d" x="64.800938" y="41.575063" style="stroke: #000000; stroke-width: 0.6"/>
      </g>
     </g>
     <g id="text_13">
      <!-- $\mathdefault{4\times10^{1}}$ -->
      <g transform="translate(23.200938 46.275063) scale(0.1 -0.1)">
       <defs>
        <path id="DejaVuSerif-17" d="M 2234 1581 
L 2234 4063 
L 641 1581 
L 2234 1581 
z
M 3609 0 
L 1484 0 
L 1484 331 
L 2234 331 
L 2234 1247 
L 197 1247 
L 197 1588 
L 2241 4750 
L 2859 4750 
L 2859 1581 
L 3750 1581 
L 3750 1247 
L 2859 1247 
L 2859 331 
L 3609 331 
L 3609 0 
z
" transform="scale(0.015625)"/>
       </defs>
       <use xlink:href="#DejaVuSerif-17" transform="translate(0 0.746875)"/>
       <use xlink:href="#DejaVuSerif-99" transform="translate(83.105469 0.746875)"/>
       <use xlink:href="#DejaVuSerif-14" transform="translate(186.376953 0.746875)"/>
       <use xlink:href="#DejaVuSerif-13" transform="translate(250 0.746875)"/>
       <use xlink:href="#DejaVuSerif-14" transform="translate(314.580078 42.046875) scale(0.7)"/>
      </g>
     </g>
    </g>
    <g id="text_14">
     <!-- Runtime (ms) -->
     <g transform="translate(16.318125 245.351875) rotate(-90) scale(0.12 -0.12)">
      <defs>
       <path id="DejaVuSerif-35" d="M 3066 2316 
Q 3284 2256 3442 2114 
Q 3600 1972 3725 1716 
L 4403 331 
L 4972 331 
L 4972 0 
L 3872 0 
L 3144 1484 
Q 2934 1916 2759 2042 
Q 2584 2169 2278 2169 
L 1581 2169 
L 1581 331 
L 2241 331 
L 2241 0 
L 353 0 
L 353 331 
L 947 331 
L 947 4331 
L 353 4331 
L 353 4666 
L 2719 4666 
Q 3400 4666 3770 4341 
Q 4141 4016 4141 3419 
Q 4141 2938 3870 2661 
Q 3600 2384 3066 2316 
z
M 1581 2503 
L 2503 2503 
Q 2975 2503 3200 2726 
Q 3425 2950 3425 3419 
Q 3425 3888 3200 4109 
Q 2975 4331 2503 4331 
L 1581 4331 
L 1581 2503 
z
" transform="scale(0.015625)"/>
       <path id="DejaVuSerif-51" d="M 263 0 
L 263 331 
L 781 331 
L 781 2988 
L 231 2988 
L 231 3322 
L 1356 3322 
L 1356 2731 
Q 1516 3069 1770 3241 
Q 2025 3413 2363 3413 
Q 2913 3413 3172 3097 
Q 3431 2781 3431 2113 
L 3431 331 
L 3944 331 
L 3944 0 
L 2356 0 
L 2356 331 
L 2853 331 
L 2853 1931 
Q 2853 2541 2703 2767 
Q 2553 2994 2175 2994 
Q 1775 2994 1565 2701 
Q 1356 2409 1356 1850 
L 1356 331 
L 1856 331 
L 1856 0 
L 263 0 
z
" transform="scale(0.015625)"/>
      </defs>
      <use xlink:href="#DejaVuSerif-35"/>
      <use xlink:href="#DejaVuSerif-58" transform="translate(75.296875 0)"/>
      <use xlink:href="#DejaVuSerif-51" transform="translate(139.703125 0)"/>
      <use xlink:href="#DejaVuSerif-57" transform="translate(204.109375 0)"/>
      <use xlink:href="#DejaVuSerif-4c" transform="translate(244.296875 0)"/>
      <use xlink:href="#DejaVuSerif-50" transform="translate(276.28125 0)"/>
      <use xlink:href="#DejaVuSerif-48" transform="translate(371.109375 0)"/>
      <use xlink:href="#DejaVuSerif-3" transform="translate(430.296875 0)"/>
      <use xlink:href="#DejaVuSerif-b" transform="translate(462.078125 0)"/>
      <use xlink:href="#DejaVuSerif-50" transform="translate(501.09375 0)"/>
      <use xlink:href="#DejaVuSerif-56" transform="translate(595.921875 0)"/>
      <use xlink:href="#DejaVuSerif-c" transform="translate(647.234375 0)"/>
     </g>
    </g>
   </g>
   <g id="line2d_24">
    <path d="M 100.471719 229.365791 
L 100.878455 157.880839 
L 132.197157 229.946126 
L 140.738621 227.483609 
L 177.548264 174.103896 
L 210.69728 87.338205 
L 278.622257 132.702476 
L 342.276502 292.002202 
L 439.079762 226.215497 
L 568.82867 147.362402 
L 590.995803 225.490155 
L 813.887344 229.976716 
" clip-path="url(#p02fccd8e2c)" style="fill: none; stroke: #2e86ab; stroke-opacity: 0.8; stroke-width: 2.5; stroke-linecap: square"/>
    <defs>
     <path id="m45a2cd8092" d="M 0 5 
C 1.326016 5 2.597899 4.473168 3.535534 3.535534 
C 4.473168 2.597899 5 1.326016 5 0 
C 5 -1.326016 4.473168 -2.597899 3.535534 -3.535534 
C 2.597899 -4.473168 1.326016 -5 0 -5 
C -1.326016 -5 -2.597899 -4.473168 -3.535534 -3.535534 
C -4.473168 -2.597899 -5 -1.326016 -5 0 
C -5 1.326016 -4.473168 2.597899 -3.535534 3.535534 
C -2.597899 4.473168 -1.326016 5 0 5 
z
" style="stroke: #2e86ab; stroke-opacity: 0.8"/>
    </defs>
    <g clip-path="url(#p02fccd8e2c)">
     <use xlink:href="#m45a2cd8092" x="100.471719" y="229.365791" style="fill: #2e86ab; fill-opacity: 0.8; stroke: #2e86ab; stroke-opacity: 0.8"/>
     <use xlink:href="#m45a2cd8092" x="100.878455" y="157.880839" style="fill: #2e86ab; fill-opacity: 0.8; stroke: #2e86ab; stroke-opacity: 0.8"/>
     <use xlink:href="#m45a2cd8092" x="132.197157" y="229.946126" style="fill: #2e86ab; fill-opacity: 0.8; stroke: #2e86ab; stroke-opacity: 0.8"/>
     <use xlink:href="#m45a2cd8092" x="140.738621" y="227.483609" style="fill: #2e86ab; fill-opacity: 0.8; stroke: #2e86ab; stroke-opacity: 0.8"/>
     <use xlink:href="#m45a2cd8092" x="177.548264" y="174.103896" style="fill: #2e86ab; fill-opacity: 0.8; stroke: #2e86ab; stroke-opacity: 0.8"/>
     <use xlink:href="#m45a2cd8092" x="210.69728" y="87.338205" style="fill: #2e86ab; fill-opacity: 0.8; stroke: #2e86ab; stroke-opacity: 0.8"/>
     <use xlink:href="#m45a2cd8092" x="278.622257" y="132.702476" style="fill: #2e86ab; fill-opacity: 0.8; stroke: #2e86ab; stroke-opacity: 0.8"/>
     <use xlink:href="#m45a2cd8092" x="342.276502" y="292.002202" style="fill: #2e86ab; fill-opacity: 0.8; stroke: #2e86ab; stroke-opacity: 0.8"/>
     <use xlink:href="#m45a2cd8092" x="439.079762" y="226.215497" style="fill: #2e86ab; fill-opacity: 0.8; stroke: #2e86ab; stroke-opacity: 0.8"/>
     <use xlink:href="#m45a2cd8092" x="568.82867" y="147.362402" style="fill: #2e86ab; fill-opacity: 0.8; stroke: #2e86ab; stroke-opacity: 0.8"/>
     <use xlink:href="#m45a2cd8092" x="590.995803" y="225.490155" style="fill: #2e86ab; fill-opacity: 0.8; stroke: #2e86ab; stroke-opacity: 0.8"/>
     <use xlink:href="#m45a2cd8092" x="813.887344" y="229.976716" style="fill: #2e86ab; fill-opacity: 0.8; stroke: #2e86ab; stroke-opacity: 0.8"/>
    </g>
   </g>
   <g id="line2d_25">
    <path d="M 101.081823 159.485065 
L 101.081823 227.067054 
L 101.081823 230.120553 
L 101.081823 226.636312 
L 101.081823 88.078081 
L 101.895296 143.364208 
L 101.895296 87.76821 
L 101.895296 88.69622 
L 101.895296 230.236921 
L 101.895296 225.744627 
L 102.708769 182.891663 
L 102.708769 135.847357 
L 102.708769 230.429997 
L 102.708769 202.320442 
L 102.708769 81.588243 
L 103.522242 317.630241 
L 103.522242 171.768955 
L 103.522242 195.681147 
L 103.522242 228.948374 
L 103.522242 241.626373 
L 104.335714 87.11376 
L 104.335714 226.326627 
L 104.335714 264.130048 
L 104.335714 225.783574 
L 104.335714 86.677636 
L 105.149187 227.290317 
L 105.149187 224.8688 
L 105.149187 87.667039 
L 105.149187 87.009907 
L 105.149187 229.457312 
L 105.96266 86.915131 
L 105.96266 88.203676 
L 105.96266 157.212432 
L 105.96266 227.287298 
L 105.96266 89.098726 
L 106.776133 230.172604 
L 106.776133 230.123614 
L 106.776133 329.055691 
L 106.776133 203.502668 
L 106.776133 228.701985 
L 107.589606 113.296913 
L 107.589606 87.639867 
L 107.589606 226.651357 
L 107.589606 226.434812 
L 107.589606 228.994034 
" clip-path="url(#p02fccd8e2c)" style="fill: none; stroke: #a23b72; stroke-opacity: 0.8; stroke-width: 2.5; stroke-linecap: square"/>
    <defs>
     <path id="mfa5b280d0c" d="M 0 5 
C 1.326016 5 2.597899 4.473168 3.535534 3.535534 
C 4.473168 2.597899 5 1.326016 5 0 
C 5 -1.326016 4.473168 -2.597899 3.535534 -3.535534 
C 2.597899 -4.473168 1.326016 -5 0 -5 
C -1.326016 -5 -2.597899 -4.473168 -3.535534 -3.535534 
C -4.473168 -2.597899 -5 -1.326016 -5 0 
C -5 1.326016 -4.473168 2.597899 -3.535534 3.535534 
C -2.597899 4.473168 -1.326016 5 0 5 
z
" style="stroke: #a23b72; stroke-opacity: 0.8"/>
    </defs>
    <g clip-path="url(#p02fccd8e2c)">
     <use xlink:href="#mfa5b280d0c" x="101.081823" y="159.485065" style="fill: #a23b72; fill-opacity: 0.8; stroke: #a23b72; stroke-opacity: 0.8"/>
     <use xlink:href="#mfa5b280d0c" x="101.081823" y="227.067054" style="fill: #a23b72; fill-opacity: 0.8; stroke: #a23b72; stroke-opacity: 0.8"/>
     <use xlink:href="#mfa5b280d0c" x="101.081823" y="230.120553" style="fill: #a23b72; fill-opacity: 0.8; stroke: #a23b72; stroke-opacity: 0.8"/>
     <use xlink:href="#mfa5b280d0c" x="101.081823" y="226.636312" style="fill: #a23b72; fill-opacity: 0.8; stroke: #a23b72; stroke-opacity: 0.8"/>
     <use xlink:href="#mfa5b280d0c" x="101.081823" y="88.078081" style="fill: #a23b72; fill-opacity: 0.8; stroke: #a23b72; stroke-opacity: 0.8"/>
     <use xlink:href="#mfa5b280d0c" x="101.895296" y="143.364208" style="fill: #a23b72; fill-opacity: 0.8; stroke: #a23b72; stroke-opacity: 0.8"/>
     <use xlink:href="#mfa5b280d0c" x="101.895296" y="87.76821" style="fill: #a23b72; fill-opacity: 0.8; stroke: #a23b72; stroke-opacity: 0.8"/>
     <use xlink:href="#mfa5b280d0c" x="101.895296" y="88.69622" style="fill: #a23b72; fill-opacity: 0.8; stroke: #a23b72; stroke-opacity: 0.8"/>
     <use xlink:href="#mfa5b280d0c" x="101.895296" y="230.236921" style="fill: #a23b72; fill-opacity: 0.8; stroke: #a23b72; stroke-opacity: 0.8"/>
     <use xlink:href="#mfa5b280d0c" x="101.895296" y="225.744627" style="fill: #a23b72; fill-opacity: 0.8; stroke: #a23b72; stroke-opacity: 0.8"/>
     <use xlink:href="#mfa5b280d0c" x="102.708769" y="182.891663" style="fill: #a23b72; fill-opacity: 0.8; stroke: #a23b72; stroke-opacity: 0.8"/>
     <use xlink:href="#mfa5b280d0c" x="102.708769" y="135.847357" style="fill: #a23b72; fill-opacity: 0.8; stroke: #a23b72; stroke-opacity: 0.8"/>
     <use xlink:href="#mfa5b280d0c" x="102.708769" y="230.429997" style="fill: #a23b72; fill-opacity: 0.8; stroke: #a23b72; stroke-opacity: 0.8"/>
     <use xlink:href="#mfa5b280d0c" x="102.708769" y="202.320442" style="fill: #a23b72; fill-opacity: 0.8; stroke: #a23b72; stroke-opacity: 0.8"/>
     <use xlink:href="#mfa5b280d0c" x="102.708769" y="81.588243" style="fill: #a23b72; fill-opacity: 0.8; stroke: #a23b72; stroke-opacity: 0.8"/>
     <use xlink:href="#mfa5b280d0c" x="103.522242" y="317.630241" style="fill: #a23b72; fill-opacity: 0.8; stroke: #a23b72; stroke-opacity: 0.8"/>
     <use xlink:href="#mfa5b280d0c" x="103.522242" y="171.768955" style="fill: #a23b72; fill-opacity: 0.8; stroke: #a23b72; stroke-opacity: 0.8"/>
     <use xlink:href="#mfa5b280d0c" x="103.522242" y="195.681147" style="fill: #a23b72; fill-opacity: 0.8; stroke: #a23b72; stroke-opacity: 0.8"/>
     <use xlink:href="#mfa5b280d0c" x="103.522242" y="228.948374" style="fill: #a23b72; fill-opacity: 0.8; stroke: #a23b72; stroke-opacity: 0.8"/>
     <use xlink:href="#mfa5b280d0c" x="103.522242" y="241.626373" style="fill: #a23b72; fill-opacity: 0.8; stroke: #a23b72; stroke-opacity: 0.8"/>
     <use xlink:href="#mfa5b280d0c" x="104.335714" y="87.11376" style="fill: #a23b72; fill-opacity: 0.8; stroke: #a23b72; stroke-opacity: 0.8"/>
     <use xlink:href="#mfa5b280d0c" x="104.335714" y="226.326627" style="fill: #a23b72; fill-opacity: 0.8; stroke: #a23b72; stroke-opacity: 0.8"/>
     <use xlink:href="#mfa5b280d0c" x="104.335714" y="264.130048" style="fill: #a23b72; fill-opacity: 0.8; stroke: #a23b72; stroke-opacity: 0.8"/>
     <use xlink:href="#mfa5b280d0c" x="104.335714" y="225.783574" style="fill: #a23b72; fill-opacity: 0.8; stroke: #a23b72; stroke-opacity: 0.8"/>
     <use xlink:href="#mfa5b280d0c" x="104.335714" y="86.677636" style="fill: #a23b72; fill-opacity: 0.8; stroke: #a23b72; stroke-opacity: 0.8"/>
     <use xlink:href="#mfa5b280d0c" x="105.149187" y="227.290317" style="fill: #a23b72; fill-opacity: 0.8; stroke: #a23b72; stroke-opacity: 0.8"/>
     <use xlink:href="#mfa5b280d0c" x="105.149187" y="224.8688" style="fill: #a23b72; fill-opacity: 0.8; stroke: #a23b72; stroke-opacity: 0.8"/>
     <use xlink:href="#mfa5b280d0c" x="105.149187" y="87.667039" style="fill: #a23b72; fill-opacity: 0.8; stroke: #a23b72; stroke-opacity: 0.8"/>
     <use xlink:href="#mfa5b280d0c" x="105.149187" y="87.009907" style="fill: #a23b72; fill-opacity: 0.8; stroke: #a23b72; stroke-opacity: 0.8"/>
     <use xlink:href="#mfa5b280d0c" x="105.149187" y="229.457312" style="fill: #a23b72; fill-opacity: 0.8; stroke: #a23b72; stroke-opacity: 0.8"/>
     <use xlink:href="#mfa5b280d0c" x="105.96266" y="86.915131" style="fill: #a23b72; fill-opacity: 0.8; stroke: #a23b72; stroke-opacity: 0.8"/>
     <use xlink:href="#mfa5b280d0c" x="105.96266" y="88.203676" style="fill: #a23b72; fill-opacity: 0.8; stroke: #a23b72; stroke-opacity: 0.8"/>
     <use xlink:href="#mfa5b280d0c" x="105.96266" y="157.212432" style="fill: #a23b72; fill-opacity: 0.8; stroke: #a23b72; stroke-opacity: 0.8"/>
     <use xlink:href="#mfa5b280d0c" x="105.96266" y="227.287298" style="fill: #a23b72; fill-opacity: 0.8; stroke: #a23b72; stroke-opacity: 0.8"/>
     <use xlink:href="#mfa5b280d0c" x="105.96266" y="89.098726" style="fill: #a23b72; fill-opacity: 0.8; stroke: #a23b72; stroke-opacity: 0.8"/>
     <use xlink:href="#mfa5b280d0c" x="106.776133" y="230.172604" style="fill: #a23b72; fill-opacity: 0.8; stroke: #a23b72; stroke-opacity: 0.8"/>
     <use xlink:href="#mfa5b280d0c" x="106.776133" y="230.123614" style="fill: #a23b72; fill-opacity: 0.8; stroke: #a23b72; stroke-opacity: 0.8"/>
     <use xlink:href="#mfa5b280d0c" x="106.776133" y="329.055691" style="fill: #a23b72; fill-opacity: 0.8; stroke: #a23b72; stroke-opacity: 0.8"/>
     <use xlink:href="#mfa5b280d0c" x="106.776133" y="203.502668" style="fill: #a23b72; fill-opacity: 0.8; stroke: #a23b72; stroke-opacity: 0.8"/>
     <use xlink:href="#mfa5b280d0c" x="106.776133" y="228.701985" style="fill: #a23b72; fill-opacity: 0.8; stroke: #a23b72; stroke-opacity: 0.8"/>
     <use xlink:href="#mfa5b280d0c" x="107.589606" y="113.296913" style="fill: #a23b72; fill-opacity: 0.8; stroke: #a23b72; stroke-opacity: 0.8"/>
     <use xlink:href="#mfa5b280d0c" x="107.589606" y="87.639867" style="fill: #a23b72; fill-opacity: 0.8; stroke: #a23b72; stroke-opacity: 0.8"/>
     <use xlink:href="#mfa5b280d0c" x="107.589606" y="226.651357" style="fill: #a23b72; fill-opacity: 0.8; stroke: #a23b72; stroke-opacity: 0.8"/>
     <use xlink:href="#mfa5b280d0c" x="107.589606" y="226.434812" style="fill: #a23b72; fill-opacity: 0.8; stroke: #a23b72; stroke-opacity: 0.8"/>
     <use xlink:href="#mfa5b280d0c" x="107.589606" y="228.994034" style="fill: #a23b72; fill-opacity: 0.8; stroke: #a23b72; stroke-opacity: 0.8"/>
    </g>
   </g>
   <g id="line2d_26">
    <path d="M 105.149187 230.522002 
L 105.149187 88.882944 
L 105.149187 229.958361 
L 105.149187 178.434476 
L 105.149187 87.825614 
L 105.759292 87.473897 
L 105.759292 137.990928 
L 105.759292 227.852587 
L 105.759292 106.011898 
L 105.759292 40.232273 
L 106.369396 226.765739 
L 106.369396 156.461257 
L 106.369396 88.667392 
L 106.369396 254.851168 
L 106.369396 149.495241 
L 106.776133 226.062419 
L 106.776133 87.976754 
L 106.776133 229.496984 
L 106.776133 207.159828 
L 106.776133 87.799931 
L 107.386237 87.161942 
L 107.386237 114.27479 
L 107.386237 108.156342 
L 107.386237 152.072342 
L 107.386237 120.896184 
L 107.792974 224.949349 
L 107.792974 225.310721 
L 107.792974 224.824065 
L 107.792974 142.062758 
L 107.792974 227.37788 
L 108.19971 110.247851 
L 108.19971 227.39298 
L 108.19971 227.46548 
L 108.19971 228.632078 
L 108.19971 87.4558 
L 108.606447 230.770627 
L 108.606447 149.023871 
L 108.606447 108.743802 
L 108.606447 229.17678 
L 108.606447 174.858783 
L 109.216551 127.148549 
L 109.216551 139.490664 
L 109.216551 113.791274 
L 109.216551 226.825966 
L 109.216551 136.492653 
L 109.623287 164.771653 
L 109.623287 90.178062 
L 109.623287 197.79526 
L 109.623287 87.895124 
L 109.623287 171.313428 
L 110.233392 230.062394 
L 110.233392 150.998675 
L 110.233392 261.78429 
L 110.233392 225.01202 
L 110.233392 218.050737 
L 110.640128 368.121477 
L 110.640128 146.186278 
L 110.640128 229.888017 
L 110.640128 87.175495 
L 110.640128 86.999374 
" clip-path="url(#p02fccd8e2c)" style="fill: none; stroke: #f18f01; stroke-opacity: 0.8; stroke-width: 2.5; stroke-linecap: square"/>
    <defs>
     <path id="m50fcc4134f" d="M 0 5 
C 1.326016 5 2.597899 4.473168 3.535534 3.535534 
C 4.473168 2.597899 5 1.326016 5 0 
C 5 -1.326016 4.473168 -2.597899 3.535534 -3.535534 
C 2.597899 -4.473168 1.326016 -5 0 -5 
C -1.326016 -5 -2.597899 -4.473168 -3.535534 -3.535534 
C -4.473168 -2.597899 -5 -1.326016 -5 0 
C -5 1.326016 -4.473168 2.597899 -3.535534 3.535534 
C -2.597899 4.473168 -1.326016 5 0 5 
z
" style="stroke: #f18f01; stroke-opacity: 0.8"/>
    </defs>
    <g clip-path="url(#p02fccd8e2c)">
     <use xlink:href="#m50fcc4134f" x="105.149187" y="230.522002" style="fill: #f18f01; fill-opacity: 0.8; stroke: #f18f01; stroke-opacity: 0.8"/>
     <use xlink:href="#m50fcc4134f" x="105.149187" y="88.882944" style="fill: #f18f01; fill-opacity: 0.8; stroke: #f18f01; stroke-opacity: 0.8"/>
     <use xlink:href="#m50fcc4134f" x="105.149187" y="229.958361" style="fill: #f18f01; fill-opacity: 0.8; stroke: #f18f01; stroke-opacity: 0.8"/>
     <use xlink:href="#m50fcc4134f" x="105.149187" y="178.434476" style="fill: #f18f01; fill-opacity: 0.8; stroke: #f18f01; stroke-opacity: 0.8"/>
     <use xlink:href="#m50fcc4134f" x="105.149187" y="87.825614" style="fill: #f18f01; fill-opacity: 0.8; stroke: #f18f01; stroke-opacity: 0.8"/>
     <use xlink:href="#m50fcc4134f" x="105.759292" y="87.473897" style="fill: #f18f01; fill-opacity: 0.8; stroke: #f18f01; stroke-opacity: 0.8"/>
     <use xlink:href="#m50fcc4134f" x="105.759292" y="137.990928" style="fill: #f18f01; fill-opacity: 0.8; stroke: #f18f01; stroke-opacity: 0.8"/>
     <use xlink:href="#m50fcc4134f" x="105.759292" y="227.852587" style="fill: #f18f01; fill-opacity: 0.8; stroke: #f18f01; stroke-opacity: 0.8"/>
     <use xlink:href="#m50fcc4134f" x="105.759292" y="106.011898" style="fill: #f18f01; fill-opacity: 0.8; stroke: #f18f01; stroke-opacity: 0.8"/>
     <use xlink:href="#m50fcc4134f" x="105.759292" y="40.232273" style="fill: #f18f01; fill-opacity: 0.8; stroke: #f18f01; stroke-opacity: 0.8"/>
     <use xlink:href="#m50fcc4134f" x="106.369396" y="226.765739" style="fill: #f18f01; fill-opacity: 0.8; stroke: #f18f01; stroke-opacity: 0.8"/>
     <use xlink:href="#m50fcc4134f" x="106.369396" y="156.461257" style="fill: #f18f01; fill-opacity: 0.8; stroke: #f18f01; stroke-opacity: 0.8"/>
     <use xlink:href="#m50fcc4134f" x="106.369396" y="88.667392" style="fill: #f18f01; fill-opacity: 0.8; stroke: #f18f01; stroke-opacity: 0.8"/>
     <use xlink:href="#m50fcc4134f" x="106.369396" y="254.851168" style="fill: #f18f01; fill-opacity: 0.8; stroke: #f18f01; stroke-opacity: 0.8"/>
     <use xlink:href="#m50fcc4134f" x="106.369396" y="149.495241" style="fill: #f18f01; fill-opacity: 0.8; stroke: #f18f01; stroke-opacity: 0.8"/>
     <use xlink:href="#m50fcc4134f" x="106.776133" y="226.062419" style="fill: #f18f01; fill-opacity: 0.8; stroke: #f18f01; stroke-opacity: 0.8"/>
     <use xlink:href="#m50fcc4134f" x="106.776133" y="87.976754" style="fill: #f18f01; fill-opacity: 0.8; stroke: #f18f01; stroke-opacity: 0.8"/>
     <use xlink:href="#m50fcc4134f" x="106.776133" y="229.496984" style="fill: #f18f01; fill-opacity: 0.8; stroke: #f18f01; stroke-opacity: 0.8"/>
     <use xlink:href="#m50fcc4134f" x="106.776133" y="207.159828" style="fill: #f18f01; fill-opacity: 0.8; stroke: #f18f01; stroke-opacity: 0.8"/>
     <use xlink:href="#m50fcc4134f" x="106.776133" y="87.799931" style="fill: #f18f01; fill-opacity: 0.8; stroke: #f18f01; stroke-opacity: 0.8"/>
     <use xlink:href="#m50fcc4134f" x="107.386237" y="87.161942" style="fill: #f18f01; fill-opacity: 0.8; stroke: #f18f01; stroke-opacity: 0.8"/>
     <use xlink:href="#m50fcc4134f" x="107.386237" y="114.27479" style="fill: #f18f01; fill-opacity: 0.8; stroke: #f18f01; stroke-opacity: 0.8"/>
     <use xlink:href="#m50fcc4134f" x="107.386237" y="108.156342" style="fill: #f18f01; fill-opacity: 0.8; stroke: #f18f01; stroke-opacity: 0.8"/>
     <use xlink:href="#m50fcc4134f" x="107.386237" y="152.072342" style="fill: #f18f01; fill-opacity: 0.8; stroke: #f18f01; stroke-opacity: 0.8"/>
     <use xlink:href="#m50fcc4134f" x="107.386237" y="120.896184" style="fill: #f18f01; fill-opacity: 0.8; stroke: #f18f01; stroke-opacity: 0.8"/>
     <use xlink:href="#m50fcc4134f" x="107.792974" y="224.949349" style="fill: #f18f01; fill-opacity: 0.8; stroke: #f18f01; stroke-opacity: 0.8"/>
     <use xlink:href="#m50fcc4134f" x="107.792974" y="225.310721" style="fill: #f18f01; fill-opacity: 0.8; stroke: #f18f01; stroke-opacity: 0.8"/>
     <use xlink:href="#m50fcc4134f" x="107.792974" y="224.824065" style="fill: #f18f01; fill-opacity: 0.8; stroke: #f18f01; stroke-opacity: 0.8"/>
     <use xlink:href="#m50fcc4134f" x="107.792974" y="142.062758" style="fill: #f18f01; fill-opacity: 0.8; stroke: #f18f01; stroke-opacity: 0.8"/>
     <use xlink:href="#m50fcc4134f" x="107.792974" y="227.37788" style="fill: #f18f01; fill-opacity: 0.8; stroke: #f18f01; stroke-opacity: 0.8"/>
     <use xlink:href="#m50fcc4134f" x="108.19971" y="110.247851" style="fill: #f18f01; fill-opacity: 0.8; stroke: #f18f01; stroke-opacity: 0.8"/>
     <use xlink:href="#m50fcc4134f" x="108.19971" y="227.39298" style="fill: #f18f01; fill-opacity: 0.8; stroke: #f18f01; stroke-opacity: 0.8"/>
     <use xlink:href="#m50fcc4134f" x="108.19971" y="227.46548" style="fill: #f18f01; fill-opacity: 0.8; stroke: #f18f01; stroke-opacity: 0.8"/>
     <use xlink:href="#m50fcc4134f" x="108.19971" y="228.632078" style="fill: #f18f01; fill-opacity: 0.8; stroke: #f18f01; stroke-opacity: 0.8"/>
     <use xlink:href="#m50fcc4134f" x="108.19971" y="87.4558" style="fill: #f18f01; fill-opacity: 0.8; stroke: #f18f01; stroke-opacity: 0.8"/>
     <use xlink:href="#m50fcc4134f" x="108.606447" y="230.770627" style="fill: #f18f01; fill-opacity: 0.8; stroke: #f18f01; stroke-opacity: 0.8"/>
     <use xlink:href="#m50fcc4134f" x="108.606447" y="149.023871" style="fill: #f18f01; fill-opacity: 0.8; stroke: #f18f01; stroke-opacity: 0.8"/>
     <use xlink:href="#m50fcc4134f" x="108.606447" y="108.743802" style="fill: #f18f01; fill-opacity: 0.8; stroke: #f18f01; stroke-opacity: 0.8"/>
     <use xlink:href="#m50fcc4134f" x="108.606447" y="229.17678" style="fill: #f18f01; fill-opacity: 0.8; stroke: #f18f01; stroke-opacity: 0.8"/>
     <use xlink:href="#m50fcc4134f" x="108.606447" y="174.858783" style="fill: #f18f01; fill-opacity: 0.8; stroke: #f18f01; stroke-opacity: 0.8"/>
     <use xlink:href="#m50fcc4134f" x="109.216551" y="127.148549" style="fill: #f18f01; fill-opacity: 0.8; stroke: #f18f01; stroke-opacity: 0.8"/>
     <use xlink:href="#m50fcc4134f" x="109.216551" y="139.490664" style="fill: #f18f01; fill-opacity: 0.8; stroke: #f18f01; stroke-opacity: 0.8"/>
     <use xlink:href="#m50fcc4134f" x="109.216551" y="113.791274" style="fill: #f18f01; fill-opacity: 0.8; stroke: #f18f01; stroke-opacity: 0.8"/>
     <use xlink:href="#m50fcc4134f" x="109.216551" y="226.825966" style="fill: #f18f01; fill-opacity: 0.8; stroke: #f18f01; stroke-opacity: 0.8"/>
     <use xlink:href="#m50fcc4134f" x="109.216551" y="136.492653" style="fill: #f18f01; fill-opacity: 0.8; stroke: #f18f01; stroke-opacity: 0.8"/>
     <use xlink:href="#m50fcc4134f" x="109.623287" y="164.771653" style="fill: #f18f01; fill-opacity: 0.8; stroke: #f18f01; stroke-opacity: 0.8"/>
     <use xlink:href="#m50fcc4134f" x="109.623287" y="90.178062" style="fill: #f18f01; fill-opacity: 0.8; stroke: #f18f01; stroke-opacity: 0.8"/>
     <use xlink:href="#m50fcc4134f" x="109.623287" y="197.79526" style="fill: #f18f01; fill-opacity: 0.8; stroke: #f18f01; stroke-opacity: 0.8"/>
     <use xlink:href="#m50fcc4134f" x="109.623287" y="87.895124" style="fill: #f18f01; fill-opacity: 0.8; stroke: #f18f01; stroke-opacity: 0.8"/>
     <use xlink:href="#m50fcc4134f" x="109.623287" y="171.313428" style="fill: #f18f01; fill-opacity: 0.8; stroke: #f18f01; stroke-opacity: 0.8"/>
     <use xlink:href="#m50fcc4134f" x="110.233392" y="230.062394" style="fill: #f18f01; fill-opacity: 0.8; stroke: #f18f01; stroke-opacity: 0.8"/>
     <use xlink:href="#m50fcc4134f" x="110.233392" y="150.998675" style="fill: #f18f01; fill-opacity: 0.8; stroke: #f18f01; stroke-opacity: 0.8"/>
     <use xlink:href="#m50fcc4134f" x="110.233392" y="261.78429" style="fill: #f18f01; fill-opacity: 0.8; stroke: #f18f01; stroke-opacity: 0.8"/>
     <use xlink:href="#m50fcc4134f" x="110.233392" y="225.01202" style="fill: #f18f01; fill-opacity: 0.8; stroke: #f18f01; stroke-opacity: 0.8"/>
     <use xlink:href="#m50fcc4134f" x="110.233392" y="218.050737" style="fill: #f18f01; fill-opacity: 0.8; stroke: #f18f01; stroke-opacity: 0.8"/>
     <use xlink:href="#m50fcc4134f" x="110.640128" y="368.121477" style="fill: #f18f01; fill-opacity: 0.8; stroke: #f18f01; stroke-opacity: 0.8"/>
     <use xlink:href="#m50fcc4134f" x="110.640128" y="146.186278" style="fill: #f18f01; fill-opacity: 0.8; stroke: #f18f01; stroke-opacity: 0.8"/>
     <use xlink:href="#m50fcc4134f" x="110.640128" y="229.888017" style="fill: #f18f01; fill-opacity: 0.8; stroke: #f18f01; stroke-opacity: 0.8"/>
     <use xlink:href="#m50fcc4134f" x="110.640128" y="87.175495" style="fill: #f18f01; fill-opacity: 0.8; stroke: #f18f01; stroke-opacity: 0.8"/>
     <use xlink:href="#m50fcc4134f" x="110.640128" y="86.999374" style="fill: #f18f01; fill-opacity: 0.8; stroke: #f18f01; stroke-opacity: 0.8"/>
    </g>
   </g>
   <g id="patch_3">
    <path d="M 64.800938 384.515938 
L 64.800938 23.837813 
" style="fill: none; stroke: #333333; stroke-width: 1.2; stroke-linejoin: miter; stroke-linecap: square"/>
   </g>
   <g id="patch_4">
    <path d="M 849.558125 384.515938 
L 849.558125 23.837813 
" style="fill: none; stroke: #333333; stroke-width: 1.2; stroke-linejoin: miter; stroke-linecap: square"/>
   </g>
   <g id="patch_5">
    <path d="M 64.800938 384.515938 
L 849.558125 384.515938 
" style="fill: none; stroke: #333333; stroke-width: 1.2; stroke-linejoin: miter; stroke-linecap: square"/>
   </g>
   <g id="patch_6">
    <path d="M 64.800938 23.837813 
L 849.558125 23.837813 
" style="fill: none; stroke: #333333; stroke-width: 1.2; stroke-linejoin: miter; stroke-linecap: square"/>
   </g>
   <g id="text_15">
    <!-- Subgraph-SAT-Solver: Runtime vs. Circuit Size -->
    <g transform="translate(274.649062 17.837813) scale(0.14 -0.14)">
     <defs>
      <path id="DejaVuSerif-Bold-36" d="M 494 225 
L 494 1331 
L 891 1331 
Q 981 806 1318 547 
Q 1656 288 2253 288 
Q 2738 288 2991 472 
Q 3244 656 3244 1013 
Q 3244 1294 3072 1450 
Q 2900 1606 2363 1741 
L 1663 1913 
Q 978 2088 700 2398 
Q 422 2709 422 3284 
Q 422 3978 883 4364 
Q 1344 4750 2175 4750 
Q 2584 4750 3026 4681 
Q 3469 4613 3944 4475 
L 3944 3444 
L 3547 3444 
Q 3456 3925 3150 4148 
Q 2844 4372 2278 4372 
Q 1816 4372 1580 4211 
Q 1344 4050 1344 3731 
Q 1344 3441 1506 3289 
Q 1669 3138 2303 2975 
L 3003 2803 
Q 3653 2641 3945 2297 
Q 4238 1953 4238 1350 
Q 4238 644 3750 276 
Q 3263 -91 2316 -91 
Q 1859 -91 1409 -12 
Q 959 66 494 225 
z
" transform="scale(0.015625)"/>
      <path id="DejaVuSerif-Bold-58" d="M 3963 3322 
L 3963 378 
L 4434 378 
L 4434 0 
L 2853 0 
L 2853 469 
Q 2656 172 2400 40 
Q 2144 -91 1753 -91 
Q 1194 -91 908 239 
Q 622 569 622 1209 
L 622 2944 
L 147 2944 
L 147 3322 
L 1728 3322 
L 1728 1381 
Q 1728 763 1831 595 
Q 1934 428 2209 428 
Q 2544 428 2698 675 
Q 2853 922 2853 1459 
L 2853 2944 
L 2450 2944 
L 2450 3322 
L 3963 3322 
z
" transform="scale(0.015625)"/>
      <path id="DejaVuSerif-Bold-45" d="M 622 378 
L 622 4488 
L 147 4488 
L 147 4863 
L 1728 4863 
L 1728 2900 
Q 1869 3159 2106 3286 
Q 2344 3413 2694 3413 
Q 3403 3413 3811 2945 
Q 4219 2478 4219 1663 
Q 4219 847 3811 378 
Q 3403 -91 2694 -91 
Q 2344 -91 2106 36 
Q 1869 163 1728 422 
L 1728 0 
L 147 0 
L 147 378 
L 622 378 
z
M 1728 1497 
Q 1728 916 1876 656 
Q 2025 397 2356 397 
Q 2697 397 2836 672 
Q 2975 947 2975 1663 
Q 2975 2378 2836 2651 
Q 2697 2925 2356 2925 
Q 2025 2925 1876 2665 
Q 1728 2406 1728 1825 
L 1728 1497 
z
" transform="scale(0.015625)"/>
      <path id="DejaVuSerif-Bold-4a" d="M 3853 2944 
L 3853 44 
Q 3853 -656 3354 -1039 
Q 2856 -1422 1947 -1422 
Q 1616 -1422 1275 -1370 
Q 934 -1319 575 -1216 
L 575 -422 
L 928 -422 
Q 975 -750 1192 -909 
Q 1409 -1069 1813 -1069 
Q 2325 -1069 2536 -823 
Q 2747 -578 2747 44 
L 2747 422 
Q 2606 163 2367 36 
Q 2128 -91 1778 -91 
Q 1072 -91 667 378 
Q 263 847 263 1663 
Q 263 2481 667 2947 
Q 1072 3413 1778 3413 
Q 2128 3413 2367 3286 
Q 2606 3159 2747 2900 
L 2747 3322 
L 4325 3322 
L 4325 2944 
L 3853 2944 
z
M 2747 1825 
Q 2747 2406 2597 2665 
Q 2447 2925 2119 2925 
Q 1775 2925 1636 2651 
Q 1497 2378 1497 1663 
Q 1497 947 1637 672 
Q 1778 397 2119 397 
Q 2447 397 2597 656 
Q 2747 916 2747 1497 
L 2747 1825 
z
" transform="scale(0.015625)"/>
      <path id="DejaVuSerif-Bold-55" d="M 3438 3359 
L 3438 2369 
L 3084 2369 
Q 3066 2634 2941 2764 
Q 2816 2894 2578 2894 
Q 2216 2894 2006 2575 
Q 1797 2256 1797 1691 
L 1797 378 
L 2400 378 
L 2400 0 
L 219 0 
L 219 378 
L 691 378 
L 691 2944 
L 184 2944 
L 184 3322 
L 1797 3322 
L 1797 2731 
Q 1959 3078 2226 3245 
Q 2494 3413 2881 3413 
Q 2978 3413 3117 3398 
Q 3256 3384 3438 3359 
z
" transform="scale(0.015625)"/>
      <path id="DejaVuSerif-Bold-44" d="M 3525 2041 
L 3525 378 
L 4000 378 
L 4000 0 
L 2419 0 
L 2419 422 
Q 2200 159 1931 34 
Q 1663 -91 1319 -91 
Q 809 -91 536 182 
Q 263 456 263 966 
Q 263 1525 655 1803 
Q 1047 2081 1838 2081 
L 2419 2081 
L 2419 2278 
Q 2419 2681 2228 2873 
Q 2038 3066 1638 3066 
Q 1306 3066 1126 2930 
Q 947 2794 872 2484 
L 519 2484 
L 519 3200 
Q 816 3306 1134 3359 
Q 1453 3413 1806 3413 
Q 2697 3413 3111 3081 
Q 3525 2750 3525 2041 
z
M 2419 1044 
L 2419 1709 
L 2003 1709 
Q 1694 1709 1528 1540 
Q 1363 1372 1363 1056 
Q 1363 741 1483 584 
Q 1603 428 1850 428 
Q 2106 428 2262 597 
Q 2419 766 2419 1044 
z
" transform="scale(0.015625)"/>
      <path id="DejaVuSerif-Bold-53" d="M 1728 1825 
L 1728 1497 
Q 1728 916 1876 656 
Q 2025 397 2356 397 
Q 2697 397 2836 672 
Q 2975 947 2975 1663 
Q 2975 2378 2836 2651 
Q 2697 2925 2356 2925 
Q 2025 2925 1876 2665 
Q 1728 2406 1728 1825 
z
M 622 2944 
L 147 2944 
L 147 3322 
L 1728 3322 
L 1728 2900 
Q 1869 3159 2106 3286 
Q 2344 3413 2694 3413 
Q 3403 3413 3811 2945 
Q 4219 2478 4219 1663 
Q 4219 847 3811 378 
Q 3403 -91 2694 -91 
Q 2344 -91 2106 36 
Q 1869 163 1728 422 
L 1728 -953 
L 2241 -953 
L 2241 -1331 
L 147 -1331 
L 147 -953 
L 622 -953 
L 622 2944 
z
" transform="scale(0.015625)"/>
      <path id="DejaVuSerif-Bold-4b" d="M 219 0 
L 219 378 
L 691 378 
L 691 4488 
L 197 4488 
L 197 4863 
L 1797 4863 
L 1797 2853 
Q 1997 3150 2253 3281 
Q 2509 3413 2900 3413 
Q 3459 3413 3745 3083 
Q 4031 2753 4031 2113 
L 4031 378 
L 4506 378 
L 4506 0 
L 2522 0 
L 2522 378 
L 2925 378 
L 2925 2144 
Q 2925 2566 2817 2730 
Q 2709 2894 2444 2894 
Q 2109 2894 1953 2648 
Q 1797 2403 1797 1869 
L 1797 378 
L 2203 378 
L 2203 0 
L 219 0 
z
" transform="scale(0.015625)"/>
      <path id="DejaVuSerif-Bold-10" d="M 347 2138 
L 2309 2138 
L 2309 1294 
L 347 1294 
L 347 2138 
z
" transform="scale(0.015625)"/>
      <path id="DejaVuSerif-Bold-24" d="M -50 0 
L -50 378 
L 331 378 
L 2088 4666 
L 2834 4666 
L 4594 378 
L 5038 378 
L 5038 0 
L 2853 0 
L 2853 378 
L 3309 378 
L 2925 1331 
L 1172 1331 
L 781 378 
L 1338 378 
L 1338 0 
L -50 0 
z
M 1325 1709 
L 2772 1709 
L 2053 3494 
L 1325 1709 
z
" transform="scale(0.015625)"/>
      <path id="DejaVuSerif-Bold-37" d="M 1159 0 
L 1159 378 
L 1778 378 
L 1778 4238 
L 500 4238 
L 500 3500 
L 72 3500 
L 72 4666 
L 4697 4666 
L 4697 3500 
L 4275 3500 
L 4275 4238 
L 2988 4238 
L 2988 378 
L 3609 378 
L 3609 0 
L 1159 0 
z
" transform="scale(0.015625)"/>
      <path id="DejaVuSerif-Bold-52" d="M 2138 263 
Q 2488 263 2630 563 
Q 2772 863 2772 1663 
Q 2772 2463 2631 2761 
Q 2491 3059 2138 3059 
Q 1784 3059 1640 2757 
Q 1497 2456 1497 1663 
Q 1497 869 1640 566 
Q 1784 263 2138 263 
z
M 2138 -91 
Q 1259 -91 761 376 
Q 263 844 263 1663 
Q 263 2484 761 2948 
Q 1259 3413 2138 3413 
Q 3019 3413 3516 2948 
Q 4013 2484 4013 1663 
Q 4013 844 3514 376 
Q 3016 -91 2138 -91 
z
" transform="scale(0.015625)"/>
      <path id="DejaVuSerif-Bold-4f" d="M 1797 378 
L 2272 378 
L 2272 0 
L 219 0 
L 219 378 
L 691 378 
L 691 4488 
L 219 4488 
L 219 4863 
L 1797 4863 
L 1797 378 
z
" transform="scale(0.015625)"/>
      <path id="DejaVuSerif-Bold-59" d="M 1428 0 
L 250 2944 
L -116 2944 
L -116 3322 
L 1791 3322 
L 1791 2944 
L 1388 2944 
L 2228 844 
L 3066 2944 
L 2631 2944 
L 2631 3322 
L 3878 3322 
L 3878 2944 
L 3494 2944 
L 2316 0 
L 1428 0 
z
" transform="scale(0.015625)"/>
      <path id="DejaVuSerif-Bold-48" d="M 2566 1875 
Q 2566 2531 2444 2795 
Q 2322 3059 2028 3059 
Q 1744 3059 1620 2800 
Q 1497 2541 1497 1931 
L 1497 1875 
L 2566 1875 
z
M 3781 1503 
L 1497 1503 
L 1497 1478 
Q 1497 834 1690 548 
Q 1884 263 2316 263 
Q 2675 263 2897 453 
Q 3119 644 3181 1006 
L 3700 1006 
Q 3566 441 3166 175 
Q 2766 -91 2047 -91 
Q 1184 -91 723 364 
Q 263 819 263 1663 
Q 263 2488 734 2950 
Q 1206 3413 2047 3413 
Q 2872 3413 3312 2927 
Q 3753 2441 3781 1503 
z
" transform="scale(0.015625)"/>
      <path id="DejaVuSerif-Bold-1d" d="M 588 2541 
Q 588 2788 761 2963 
Q 934 3138 1178 3138 
Q 1422 3138 1597 2961 
Q 1772 2784 1772 2541 
Q 1772 2297 1598 2125 
Q 1425 1953 1178 1953 
Q 931 1953 759 2125 
Q 588 2297 588 2541 
z
M 588 506 
Q 588 750 761 925 
Q 934 1100 1178 1100 
Q 1422 1100 1597 925 
Q 1772 750 1772 506 
Q 1772 259 1597 84 
Q 1422 -91 1178 -91 
Q 934 -91 761 84 
Q 588 259 588 506 
z
" transform="scale(0.015625)"/>
      <path id="DejaVuSerif-Bold-3" transform="scale(0.015625)"/>
      <path id="DejaVuSerif-Bold-35" d="M 3397 2278 
Q 3675 2238 3865 2094 
Q 4056 1950 4197 1678 
L 4878 378 
L 5356 378 
L 5356 0 
L 3822 0 
L 3078 1409 
Q 2863 1847 2711 1967 
Q 2559 2088 2291 2088 
L 2100 2088 
L 2100 378 
L 2700 378 
L 2700 0 
L 300 0 
L 300 378 
L 897 378 
L 897 4288 
L 300 4288 
L 300 4666 
L 2963 4666 
Q 3775 4666 4217 4339 
Q 4659 4013 4659 3413 
Q 4659 2925 4345 2642 
Q 4031 2359 3397 2278 
z
M 2100 2463 
L 2509 2463 
Q 2947 2463 3183 2700 
Q 3419 2938 3419 3378 
Q 3419 3819 3183 4053 
Q 2947 4288 2509 4288 
L 2100 4288 
L 2100 2463 
z
" transform="scale(0.015625)"/>
      <path id="DejaVuSerif-Bold-51" d="M 219 0 
L 219 378 
L 691 378 
L 691 2944 
L 219 2944 
L 219 3322 
L 1797 3322 
L 1797 2853 
Q 1997 3150 2253 3281 
Q 2509 3413 2900 3413 
Q 3459 3413 3745 3083 
Q 4031 2753 4031 2113 
L 4031 378 
L 4506 378 
L 4506 0 
L 2522 0 
L 2522 378 
L 2925 378 
L 2925 2144 
Q 2925 2566 2817 2730 
Q 2709 2894 2444 2894 
Q 2109 2894 1953 2648 
Q 1797 2403 1797 1869 
L 1797 378 
L 2203 378 
L 2203 0 
L 219 0 
z
" transform="scale(0.015625)"/>
      <path id="DejaVuSerif-Bold-57" d="M 634 2944 
L 153 2944 
L 153 3322 
L 634 3322 
L 634 4353 
L 1741 4353 
L 1741 3322 
L 2663 3322 
L 2663 2944 
L 1741 2944 
L 1741 909 
Q 1741 475 1809 369 
Q 1878 263 2059 263 
Q 2259 263 2356 397 
Q 2453 531 2459 813 
L 2925 813 
Q 2897 313 2651 111 
Q 2406 -91 1806 -91 
Q 1122 -91 878 123 
Q 634 338 634 909 
L 634 2944 
z
" transform="scale(0.015625)"/>
      <path id="DejaVuSerif-Bold-4c" d="M 588 4263 
Q 588 4516 763 4689 
Q 938 4863 1191 4863 
Q 1438 4863 1611 4689 
Q 1784 4516 1784 4263 
Q 1784 4016 1611 3842 
Q 1438 3669 1191 3669 
Q 938 3669 763 3841 
Q 588 4013 588 4263 
z
M 1797 378 
L 2272 378 
L 2272 0 
L 219 0 
L 219 378 
L 691 378 
L 691 2944 
L 219 2944 
L 219 3322 
L 1797 3322 
L 1797 378 
z
" transform="scale(0.015625)"/>
      <path id="DejaVuSerif-Bold-50" d="M 3884 2778 
Q 4116 3109 4384 3261 
Q 4653 3413 5013 3413 
Q 5584 3413 5867 3089 
Q 6150 2766 6150 2113 
L 6150 378 
L 6625 378 
L 6625 0 
L 4647 0 
L 4647 378 
L 5044 378 
L 5044 1947 
Q 5044 2569 4948 2731 
Q 4853 2894 4594 2894 
Q 4300 2894 4137 2667 
Q 3975 2441 3975 2022 
L 3975 378 
L 4372 378 
L 4372 0 
L 2472 0 
L 2472 378 
L 2869 378 
L 2869 1947 
Q 2869 2569 2772 2731 
Q 2675 2894 2419 2894 
Q 2122 2894 1959 2667 
Q 1797 2441 1797 2022 
L 1797 378 
L 2194 378 
L 2194 0 
L 219 0 
L 219 378 
L 691 378 
L 691 2944 
L 219 2944 
L 219 3322 
L 1797 3322 
L 1797 2853 
Q 1991 3144 2241 3278 
Q 2491 3413 2834 3413 
Q 3241 3413 3494 3258 
Q 3747 3103 3884 2778 
z
" transform="scale(0.015625)"/>
      <path id="DejaVuSerif-Bold-56" d="M 300 97 
L 300 1025 
L 653 1025 
Q 697 653 931 458 
Q 1166 263 1569 263 
Q 1906 263 2086 380 
Q 2266 497 2266 716 
Q 2266 916 2152 1025 
Q 2038 1134 1709 1216 
L 1253 1331 
Q 738 1459 506 1698 
Q 275 1938 275 2344 
Q 275 2884 650 3148 
Q 1025 3413 1806 3413 
Q 2100 3413 2433 3364 
Q 2766 3316 3169 3213 
L 3169 2375 
L 2816 2375 
Q 2788 2716 2573 2887 
Q 2359 3059 1959 3059 
Q 1622 3059 1448 2951 
Q 1275 2844 1275 2638 
Q 1275 2469 1375 2372 
Q 1475 2275 1734 2209 
L 2188 2094 
Q 2841 1928 3091 1684 
Q 3341 1441 3341 1006 
Q 3341 444 2939 176 
Q 2538 -91 1691 -91 
Q 1381 -91 1034 -44 
Q 688 3 300 97 
z
" transform="scale(0.015625)"/>
      <path id="DejaVuSerif-Bold-11" d="M 519 506 
Q 519 750 694 925 
Q 869 1100 1113 1100 
Q 1359 1100 1534 925 
Q 1709 750 1709 506 
Q 1709 259 1534 84 
Q 1359 -91 1113 -91 
Q 869 -91 694 84 
Q 519 259 519 506 
z
" transform="scale(0.015625)"/>
      <path id="DejaVuSerif-Bold-26" d="M 4769 1331 
Q 4584 609 4106 259 
Q 3628 -91 2822 -91 
Q 1641 -91 955 561 
Q 269 1213 269 2328 
Q 269 3447 955 4098 
Q 1641 4750 2822 4750 
Q 3238 4750 3688 4650 
Q 4138 4550 4641 4347 
L 4641 3200 
L 4244 3200 
Q 4122 3788 3800 4080 
Q 3478 4372 2950 4372 
Q 2269 4372 1937 3870 
Q 1606 3369 1606 2328 
Q 1606 1288 1937 788 
Q 2269 288 2956 288 
Q 3422 288 3717 547 
Q 4013 806 4147 1331 
L 4769 1331 
z
" transform="scale(0.015625)"/>
      <path id="DejaVuSerif-Bold-46" d="M 3609 1038 
Q 3491 469 3123 189 
Q 2756 -91 2125 -91 
Q 1238 -91 750 368 
Q 263 828 263 1663 
Q 263 2488 744 2950 
Q 1225 3413 2081 3413 
Q 2428 3413 2781 3347 
Q 3134 3281 3500 3150 
L 3500 2228 
L 3150 2228 
Q 3100 2650 2903 2854 
Q 2706 3059 2350 3059 
Q 1888 3059 1692 2746 
Q 1497 2434 1497 1663 
Q 1497 909 1687 586 
Q 1878 263 2309 263 
Q 2644 263 2845 463 
Q 3047 663 3091 1038 
L 3609 1038 
z
" transform="scale(0.015625)"/>
      <path id="DejaVuSerif-Bold-5d" d="M 225 0 
L 225 378 
L 2131 2956 
L 697 2956 
L 697 2388 
L 325 2388 
L 325 3322 
L 3419 3322 
L 3419 2950 
L 1509 372 
L 3047 372 
L 3047 972 
L 3419 972 
L 3419 0 
L 225 0 
z
" transform="scale(0.015625)"/>
     </defs>
     <use xlink:href="#DejaVuSerif-Bold-36"/>
     <use xlink:href="#DejaVuSerif-Bold-58" transform="translate(72.21875 0)"/>
     <use xlink:href="#DejaVuSerif-Bold-45" transform="translate(144.921875 0)"/>
     <use xlink:href="#DejaVuSerif-Bold-4a" transform="translate(214.84375 0)"/>
     <use xlink:href="#DejaVuSerif-Bold-55" transform="translate(284.765625 0)"/>
     <use xlink:href="#DejaVuSerif-Bold-44" transform="translate(337.453125 0)"/>
     <use xlink:href="#DejaVuSerif-Bold-53" transform="translate(402.25 0)"/>
     <use xlink:href="#DejaVuSerif-Bold-4b" transform="translate(472.171875 0)"/>
     <use xlink:href="#DejaVuSerif-Bold-10" transform="translate(544.875 0)"/>
     <use xlink:href="#DejaVuSerif-Bold-36" transform="translate(586.375 0)"/>
     <use xlink:href="#DejaVuSerif-Bold-24" transform="translate(658.59375 0)"/>
     <use xlink:href="#DejaVuSerif-Bold-37" transform="translate(730.71875 0)"/>
     <use xlink:href="#DejaVuSerif-Bold-10" transform="translate(788.59375 0)"/>
     <use xlink:href="#DejaVuSerif-Bold-36" transform="translate(830.09375 0)"/>
     <use xlink:href="#DejaVuSerif-Bold-52" transform="translate(902.3125 0)"/>
     <use xlink:href="#DejaVuSerif-Bold-4f" transform="translate(969.015625 0)"/>
     <use xlink:href="#DejaVuSerif-Bold-59" transform="translate(1007 0)"/>
     <use xlink:href="#DejaVuSerif-Bold-48" transform="translate(1065.109375 0)"/>
     <use xlink:href="#DejaVuSerif-Bold-55" transform="translate(1128.734375 0)"/>
     <use xlink:href="#DejaVuSerif-Bold-1d" transform="translate(1181.421875 0)"/>
     <use xlink:href="#DejaVuSerif-Bold-3" transform="translate(1218.34375 0)"/>
     <use xlink:href="#DejaVuSerif-Bold-35" transform="translate(1253.15625 0)"/>
     <use xlink:href="#DejaVuSerif-Bold-58" transform="translate(1336.265625 0)"/>
     <use xlink:href="#DejaVuSerif-Bold-51" transform="translate(1408.96875 0)"/>
     <use xlink:href="#DejaVuSerif-Bold-57" transform="translate(1481.671875 0)"/>
     <use xlink:href="#DejaVuSerif-Bold-4c" transform="translate(1527.859375 0)"/>
     <use xlink:href="#DejaVuSerif-Bold-50" transform="translate(1565.84375 0)"/>
     <use xlink:href="#DejaVuSerif-Bold-48" transform="translate(1671.65625 0)"/>
     <use xlink:href="#DejaVuSerif-Bold-3" transform="translate(1735.28125 0)"/>
     <use xlink:href="#DejaVuSerif-Bold-59" transform="translate(1770.09375 0)"/>
     <use xlink:href="#DejaVuSerif-Bold-56" transform="translate(1828.203125 0)"/>
     <use xlink:href="#DejaVuSerif-Bold-11" transform="translate(1884.5 0)"/>
     <use xlink:href="#DejaVuSerif-Bold-3" transform="translate(1919.3125 0)"/>
     <use xlink:href="#DejaVuSerif-Bold-26" transform="translate(1954.125 0)"/>
     <use xlink:href="#DejaVuSerif-Bold-4c" transform="translate(2033.71875 0)"/>
     <use xlink:href="#DejaVuSerif-Bold-55" transform="translate(2071.703125 0)"/>
     <use xlink:href="#DejaVuSerif-Bold-46" transform="translate(2124.390625 0)"/>
     <use xlink:href="#DejaVuSerif-Bold-58" transform="translate(2185.28125 0)"/>
     <use xlink:href="#DejaVuSerif-Bold-4c" transform="translate(2257.984375 0)"/>
     <use xlink:href="#DejaVuSerif-Bold-57" transform="translate(2295.96875 0)"/>
     <use xlink:href="#DejaVuSerif-Bold-3" transform="translate(2342.15625 0)"/>
     <use xlink:href="#DejaVuSerif-Bold-36" transform="translate(2376.96875 0)"/>
     <use xlink:href="#DejaVuSerif-Bold-4c" transform="translate(2449.1875 0)"/>
     <use xlink:href="#DejaVuSerif-Bold-5d" transform="translate(2487.171875 0)"/>
     <use xlink:href="#DejaVuSerif-Bold-48" transform="translate(2543.953125 0)"/>
    </g>
   </g>
   <g id="legend_1">
    <g id="patch_7">
     <path d="M 709.690938 76.840156 
L 842.558125 76.840156 
Q 844.558125 76.840156 844.558125 74.840156 
L 844.558125 30.837813 
Q 844.558125 28.837813 842.558125 28.837813 
L 709.690938 28.837813 
Q 707.690938 28.837813 707.690938 30.837813 
L 707.690938 74.840156 
Q 707.690938 76.840156 709.690938 76.840156 
z
" style="fill: #ffffff; opacity: 0.95; stroke: #cccccc; stroke-linejoin: miter"/>
    </g>
    <g id="line2d_27">
     <path d="M 711.690938 36.93625 
L 721.690938 36.93625 
L 731.690938 36.93625 
" style="fill: none; stroke: #2e86ab; stroke-opacity: 0.8; stroke-width: 2.5; stroke-linecap: square"/>
     <g>
      <use xlink:href="#m45a2cd8092" x="721.690938" y="36.93625" style="fill: #2e86ab; fill-opacity: 0.8; stroke: #2e86ab; stroke-opacity: 0.8"/>
     </g>
    </g>
    <g id="text_16">
     <!-- Iscas85 -->
     <g transform="translate(739.690938 40.43625) scale(0.1 -0.1)">
      <defs>
       <path id="DejaVuSerif-2c" d="M 1581 331 
L 2175 331 
L 2175 0 
L 353 0 
L 353 331 
L 947 331 
L 947 4331 
L 353 4331 
L 353 4666 
L 2175 4666 
L 2175 4331 
L 1581 4331 
L 1581 331 
z
" transform="scale(0.015625)"/>
       <path id="DejaVuSerif-1b" d="M 2981 1275 
Q 2981 1775 2732 2051 
Q 2484 2328 2034 2328 
Q 1584 2328 1336 2051 
Q 1088 1775 1088 1275 
Q 1088 772 1336 495 
Q 1584 219 2034 219 
Q 2484 219 2732 495 
Q 2981 772 2981 1275 
z
M 2853 3541 
Q 2853 3966 2637 4203 
Q 2422 4441 2034 4441 
Q 1650 4441 1433 4203 
Q 1216 3966 1216 3541 
Q 1216 3113 1433 2875 
Q 1650 2638 2034 2638 
Q 2422 2638 2637 2875 
Q 2853 3113 2853 3541 
z
M 2516 2484 
Q 3047 2413 3344 2092 
Q 3641 1772 3641 1275 
Q 3641 619 3225 264 
Q 2809 -91 2034 -91 
Q 1263 -91 845 264 
Q 428 619 428 1275 
Q 428 1772 725 2092 
Q 1022 2413 1556 2484 
Q 1084 2569 832 2842 
Q 581 3116 581 3541 
Q 581 4103 968 4426 
Q 1356 4750 2034 4750 
Q 2713 4750 3100 4426 
Q 3488 4103 3488 3541 
Q 3488 3116 3236 2842 
Q 2984 2569 2516 2484 
z
" transform="scale(0.015625)"/>
      </defs>
      <use xlink:href="#DejaVuSerif-2c"/>
      <use xlink:href="#DejaVuSerif-56" transform="translate(39.5 0)"/>
      <use xlink:href="#DejaVuSerif-46" transform="translate(90.8125 0)"/>
      <use xlink:href="#DejaVuSerif-44" transform="translate(146.8125 0)"/>
      <use xlink:href="#DejaVuSerif-56" transform="translate(206.4375 0)"/>
      <use xlink:href="#DejaVuSerif-1b" transform="translate(257.75 0)"/>
      <use xlink:href="#DejaVuSerif-18" transform="translate(321.375 0)"/>
     </g>
    </g>
    <g id="line2d_28">
     <path d="M 711.690938 51.937031 
L 721.690938 51.937031 
L 731.690938 51.937031 
" style="fill: none; stroke: #a23b72; stroke-opacity: 0.8; stroke-width: 2.5; stroke-linecap: square"/>
     <g>
      <use xlink:href="#mfa5b280d0c" x="721.690938" y="51.937031" style="fill: #a23b72; fill-opacity: 0.8; stroke: #a23b72; stroke-opacity: 0.8"/>
     </g>
    </g>
    <g id="text_17">
     <!-- Target_and -->
     <g transform="translate(739.690938 55.437031) scale(0.1 -0.1)">
      <defs>
       <path id="DejaVuSerif-37" d="M 1222 0 
L 1222 331 
L 1819 331 
L 1819 4294 
L 447 4294 
L 447 3566 
L 63 3566 
L 63 4666 
L 4206 4666 
L 4206 3566 
L 3822 3566 
L 3822 4294 
L 2450 4294 
L 2450 331 
L 3047 331 
L 3047 0 
L 1222 0 
z
" transform="scale(0.015625)"/>
       <path id="DejaVuSerif-4a" d="M 3359 2988 
L 3359 72 
Q 3359 -644 2965 -1033 
Q 2572 -1422 1844 -1422 
Q 1516 -1422 1216 -1362 
Q 916 -1303 641 -1184 
L 641 -488 
L 941 -488 
Q 997 -813 1206 -963 
Q 1416 -1113 1806 -1113 
Q 2313 -1113 2548 -827 
Q 2784 -541 2784 72 
L 2784 519 
Q 2616 206 2355 57 
Q 2094 -91 1709 -91 
Q 1097 -91 708 395 
Q 319 881 319 1663 
Q 319 2444 706 2928 
Q 1094 3413 1709 3413 
Q 2094 3413 2355 3264 
Q 2616 3116 2784 2803 
L 2784 3322 
L 3909 3322 
L 3909 2988 
L 3359 2988 
z
M 2784 1825 
Q 2784 2422 2554 2737 
Q 2325 3053 1888 3053 
Q 1444 3053 1217 2703 
Q 991 2353 991 1663 
Q 991 975 1217 622 
Q 1444 269 1888 269 
Q 2325 269 2554 583 
Q 2784 897 2784 1497 
L 2784 1825 
z
" transform="scale(0.015625)"/>
       <path id="DejaVuSerif-42" d="M 3200 -1259 
L 3200 -1509 
L 0 -1509 
L 0 -1259 
L 3200 -1259 
z
" transform="scale(0.015625)"/>
       <path id="DejaVuSerif-47" d="M 3359 331 
L 3909 331 
L 3909 0 
L 2784 0 
L 2784 519 
Q 2616 206 2355 57 
Q 2094 -91 1709 -91 
Q 1097 -91 708 395 
Q 319 881 319 1663 
Q 319 2444 706 2928 
Q 1094 3413 1709 3413 
Q 2094 3413 2355 3264 
Q 2616 3116 2784 2803 
L 2784 4531 
L 2241 4531 
L 2241 4863 
L 3359 4863 
L 3359 331 
z
M 2784 1497 
L 2784 1825 
Q 2784 2422 2554 2737 
Q 2325 3053 1888 3053 
Q 1444 3053 1217 2703 
Q 991 2353 991 1663 
Q 991 975 1217 622 
Q 1444 269 1888 269 
Q 2325 269 2554 583 
Q 2784 897 2784 1497 
z
" transform="scale(0.015625)"/>
      </defs>
      <use xlink:href="#DejaVuSerif-37"/>
      <use xlink:href="#DejaVuSerif-44" transform="translate(58.9375 0)"/>
      <use xlink:href="#DejaVuSerif-55" transform="translate(118.5625 0)"/>
      <use xlink:href="#DejaVuSerif-4a" transform="translate(166.359375 0)"/>
      <use xlink:href="#DejaVuSerif-48" transform="translate(230.375 0)"/>
      <use xlink:href="#DejaVuSerif-57" transform="translate(289.5625 0)"/>
      <use xlink:href="#DejaVuSerif-42" transform="translate(329.75 0)"/>
      <use xlink:href="#DejaVuSerif-44" transform="translate(379.75 0)"/>
      <use xlink:href="#DejaVuSerif-51" transform="translate(439.375 0)"/>
      <use xlink:href="#DejaVuSerif-47" transform="translate(503.78125 0)"/>
     </g>
    </g>
    <g id="line2d_29">
     <path d="M 711.690938 66.937813 
L 721.690938 66.937813 
L 731.690938 66.937813 
" style="fill: none; stroke: #f18f01; stroke-opacity: 0.8; stroke-width: 2.5; stroke-linecap: square"/>
     <g>
      <use xlink:href="#m50fcc4134f" x="721.690938" y="66.937813" style="fill: #f18f01; fill-opacity: 0.8; stroke: #f18f01; stroke-opacity: 0.8"/>
     </g>
    </g>
    <g id="text_18">
     <!-- Target_and_random -->
     <g transform="translate(739.690938 70.437813) scale(0.1 -0.1)">
      <use xlink:href="#DejaVuSerif-37"/>
      <use xlink:href="#DejaVuSerif-44" transform="translate(58.9375 0)"/>
      <use xlink:href="#DejaVuSerif-55" transform="translate(118.5625 0)"/>
      <use xlink:href="#DejaVuSerif-4a" transform="translate(166.359375 0)"/>
      <use xlink:href="#DejaVuSerif-48" transform="translate(230.375 0)"/>
      <use xlink:href="#DejaVuSerif-57" transform="translate(289.5625 0)"/>
      <use xlink:href="#DejaVuSerif-42" transform="translate(329.75 0)"/>
      <use xlink:href="#DejaVuSerif-44" transform="translate(379.75 0)"/>
      <use xlink:href="#DejaVuSerif-51" transform="translate(439.375 0)"/>
      <use xlink:href="#DejaVuSerif-47" transform="translate(503.78125 0)"/>
      <use xlink:href="#DejaVuSerif-42" transform="translate(567.796875 0)"/>
      <use xlink:href="#DejaVuSerif-55" transform="translate(617.796875 0)"/>
      <use xlink:href="#DejaVuSerif-44" transform="translate(665.59375 0)"/>
      <use xlink:href="#DejaVuSerif-51" transform="translate(725.21875 0)"/>
      <use xlink:href="#DejaVuSerif-47" transform="translate(789.625 0)"/>
      <use xlink:href="#DejaVuSerif-52" transform="translate(853.640625 0)"/>
      <use xlink:href="#DejaVuSerif-50" transform="translate(913.84375 0)"/>
     </g>
    </g>
   </g>
  </g>
 </g>
 <defs>
  <clipPath id="p02fccd8e2c">
   <rect x="64.800938" y="23.837813" width="784.757187" height="360.678125"/>
  </clipPath>
 </defs>
</svg>
